StickNoBills.sfdir
StartChar: quotedbl
Encoding: 34 34 44
Width: 460
VWidth: 0
Flags: HW
LayerCount: 2
Back
Fore
SplineSet
379 465 m 1
 252 465 l 1
 252 736 l 1
 379 736 l 1
 379 465 l 1
199 465 m 5
 72 465 l 5
 72 736 l 5
 199 736 l 5
 199 465 l 5
EndSplineSet
EndChar
StartChar: Percent_sign
Encoding: 37 37 108
Width: 688
VWidth: 0
Flags: HW
LayerCount: 2
Back
SplineSet
402.200195312 313 m 13
 402.200195312 263 l 21
 429 256.600585938 425.400390625 194.600585938 425.400390625 176.600585938 c 4
 425.400390625 139 426.200195312 89 402.600585938 83.400390625 c 13
 402.600585938 33.80078125 l 21
 429 35 475.400390625 57.80078125 475.400390625 175 c 4
 475.400390625 274.600585938 437.799804688 311 402.200195312 313 c 13
378.200195312 313 m 13
 378.200195312 263 l 21
 351.400390625 256.600585938 355 194.600585938 355 176.600585938 c 4
 355 139 354.200195312 89 377.799804688 83.400390625 c 13
 377.799804688 33.80078125 l 21
 351.400390625 35 305 57.80078125 305 175 c 4
 305 274.600585938 342.600585938 311 378.200195312 313 c 13
69.7998046875 666 m 9
 69.7998046875 616 l 17
 96.599609375 609.600585938 93 547.600585938 93 529.600585938 c 0
 93 492 93.7998046875 442 70.2001953125 436.400390625 c 9
 70.2001953125 386.80078125 l 17
 96.599609375 388 143 410.80078125 143 528 c 0
 143 627.600585938 105.399414062 664 69.7998046875 666 c 9
45.7998046875 666 m 9
 45.7998046875 616 l 17
 19 609.600585938 22.599609375 547.600585938 22.599609375 529.600585938 c 0
 22.599609375 492 21.7998046875 442 45.3994140625 436.400390625 c 9
 45.3994140625 386.80078125 l 17
 19 388 -27.400390625 410.80078125 -27.400390625 528 c 0
 -27.400390625 627.600585938 10.2001953125 664 45.7998046875 666 c 9
EndSplineSet
Fore
SplineSet
411 117 m 0
 411 177 459 225 519 225 c 0
 579 225 627 177 627 117 c 0
 627 57 579 9 519 9 c 0
 459 9 411 57 411 117 c 0
50 575 m 0
 50 635 98 683 158 683 c 0
 218 683 266 635 266 575 c 0
 266 515 218 467 158 467 c 0
 98 467 50 515 50 575 c 0
184 -23 m 25
 311 -23 l 25
 485 716 l 25
 359 716 l 25
 184 -23 l 25
EndSplineSet
EndChar
StartChar: ampersand
Encoding: 38 38 46
Width: 794
VWidth: 0
Flags: HW
LayerCount: 2
Back
SplineSet
382.9921875 168.303710938 m 2
 382.291015625 167.834960938 382.25390625 168.067382812 382.25390625 167.565429688 c 0
 382.25390625 15.673828125 l 1
 383.223632812 15.9951171875 l 0
 392.005859375 18.900390625 400.618164062 22.2607421875 409.171875 26.05859375 c 0
 417.725585938 29.8603515625 426.225585938 34.109375 434.723632812 38.91796875 c 0
 443.165039062 43.671875 451.608398438 48.984375 459.715820312 54.6875 c 0
 467.670898438 60.1875 475.34375 66.1044921875 482.79296875 72.373046875 c 1
 529.499023438 16.291015625 l 1
 726.052734375 16.291015625 l 1
 584.432617188 180.54296875 l 1
 594.495117188 191.46484375 604.204101562 203.705078125 612.560546875 216.29296875 c 0
 621.115234375 229.15234375 628.608398438 242.684570312 634.926757812 256.666015625 c 0
 641.24609375 270.59375 646.391601562 285.299804688 650.306640625 299.838867188 c 0
 654.274414062 314.370117188 656.9609375 328.916992188 658.415039062 344.020507812 c 0
 658.493164062 344.829101562 l 1
 519.826171875 344.829101562 l 1
 519.744140625 344.184570312 l 0
 518.744140625 336.404296875 517.192382812 328.64453125 515.080078125 321.42578125 c 1
 512.915039062 313.646484375 510.200195312 306.443359375 506.866210938 299.220703125 c 0
 503.72265625 292.293945312 500.1015625 285.833984375 495.926757812 279.560546875 c 1
 427.600585938 361.694335938 l 1
 451.46875 373.828125 474.015625 390.005859375 491.158203125 407.149414062 c 0
 508.513671875 424.505859375 520.61328125 442.98828125 528.791992188 461.47265625 c 0
 536.969726562 479.961914062 541.177734375 498.475585938 541.625976562 519.206054688 c 0
 542.130859375 539.369140625 538.884765625 561.754882812 532.501953125 581.909179688 c 0
 526.116210938 602.069335938 516.536132812 619.999023438 504.155273438 635.689453125 c 0
 491.833007812 651.3671875 476.616210938 664.840820312 456.068359375 675.481445312 c 1
 435.522460938 686.6796875 409.563476562 695.067382812 383.115234375 699.536132812 c 0
 382.25390625 699.681640625 l 1
 382.25390625 582.8984375 l 1
 382.666992188 582.696289062 l 0
 388.2734375 579.947265625 393.390625 576.09765625 397.453125 571.705078125 c 0
 401.583007812 567.297851562 404.682617188 562.40625 406.776367188 555.797851562 c 1
 408.870117188 549.734375 410.02734375 542.600585938 409.584960938 533.7578125 c 0
 409.142578125 525.477539062 407.151367188 515.526367188 402.630859375 506.15234375 c 0
 398.108398438 496.780273438 391.029296875 487.922851562 382.49609375 480.1640625 c 0
 382.25390625 479.944335938 l 1
 382.25390625 198.301757812 l 1
 397.286132812 180.583984375 l 1
 396.719726562 179.983398438 395.890625 179.119140625 395.08203125 178.352539062 c 1
 394.0859375 177.357421875 392.998046875 176.380859375 390.88671875 174.599609375 c 1
 388.793945312 172.889648438 385.666992188 170.490234375 382.549804688 168.15625 c 0
 382.354492188 168.009765625 382.2421875 167.76953125 382.255859375 167.525390625 c 1
 382.9921875 168.303710938 l 2
383.892578125 167.318359375 m 2
 386.870117188 169.5546875 389.788085938 171.796875 391.830078125 173.46484375 c 1
 393.9609375 175.26171875 395.099609375 176.283203125 396.111328125 177.295898438 c 1
 397.118164062 178.249023438 397.98046875 179.166015625 398.813476562 180.055664062 c 0
 399.262695312 180.53515625 l 1
 383.73046875 198.842773438 l 1
 383.73046875 479.291992188 l 1
 392.516601562 487.356445312 399.357421875 495.974609375 403.9609375 505.51171875 c 0
 408.584960938 515.100585938 410.607421875 525.227539062 411.059570312 533.68359375 c 0
 411.509765625 542.686523438 410.321289062 550.0546875 408.176757812 556.260742188 c 1
 406.032226562 563.03515625 402.772460938 568.186523438 398.537109375 572.70703125 c 0
 394.431640625 577.145507812 389.084960938 581.12109375 383.73046875 583.81640625 c 1
 383.73046875 697.934570312 l 1
 410.018554688 693.391601562 435.170898438 685.190429688 455.375 674.178710938 c 1
 475.764648438 663.620117188 490.778320312 650.322265625 502.997070312 634.775390625 c 0
 515.268554688 619.223632812 524.762695312 601.458007812 531.095703125 581.463867188 c 0
 537.427734375 561.467773438 540.650390625 539.228515625 540.151367188 519.237304688 c 0
 539.70703125 498.690429688 535.547851562 480.395507812 527.442382812 462.0703125 c 0
 519.333984375 443.74609375 507.341796875 425.419921875 490.115234375 408.192382812 c 0
 472.888671875 390.966796875 450.413085938 374.829101562 426.108398438 362.59375 c 0
 425.279296875 362.17578125 l 1
 496.051757812 277.102539062 l 1
 496.6015625 277.916992188 l 0
 501.028320312 284.47265625 504.900390625 291.319335938 508.206054688 298.6015625 c 0
 511.565429688 305.880859375 514.317382812 313.181640625 516.5 321.021484375 c 1
 518.560546875 328.065429688 520.145507812 336.00390625 521.123046875 343.352539062 c 1
 656.8671875 343.352539062 l 1
 655.354492188 328.233398438 652.776367188 314.485351562 648.880859375 300.221679688 c 0
 644.985351562 285.754882812 639.8671875 271.125 633.583007812 257.2734375 c 0
 627.295898438 243.364257812 619.84375 229.904296875 611.33203125 217.109375 c 0
 602.875976562 204.372070312 593.306640625 192.298828125 582.90234375 181.060546875 c 0
 582.454101562 180.577148438 l 1
 722.83203125 17.767578125 l 1
 530.190429688 17.767578125 l 1
 482.975585938 74.458984375 l 1
 482.408203125 73.9794921875 l 0
 474.837890625 67.580078125 466.99609375 61.5146484375 458.866210938 55.89453125 c 0
 450.799804688 50.220703125 442.401367188 44.935546875 433.997070312 40.203125 c 0
 425.541992188 35.41796875 417.084960938 31.1904296875 408.572265625 27.408203125 c 0
 400.377929688 23.7685546875 392.09375 20.5302734375 383.73046875 17.71875 c 1
 383.73046875 167.0703125 l 0
 383.892578125 167.318359375 l 2
382.9921875 167.565429688 m 0
 386.1171875 169.90625 389.239257812 172.30078125 391.358398438 174.032226562 c 0
 393.479492188 175.821289062 394.592773438 176.8203125 395.596679688 177.82421875 c 0
 396.6015625 178.776367188 397.438476562 179.666015625 398.274414062 180.559570312 c 2
 382.9921875 198.572265625 l 1
 382.9921875 479.618164062 l 1
 391.581054688 487.427734375 398.720703125 496.352539062 403.295898438 505.83203125 c 0
 407.868164062 515.313476562 409.875 525.352539062 410.322265625 533.720703125 c 0
 410.768554688 542.643554688 409.595703125 549.89453125 407.4765625 556.029296875 c 0
 405.357421875 562.720703125 402.177734375 567.7421875 397.995117188 572.206054688 c 0
 393.869140625 576.666992188 388.682617188 580.568359375 382.9921875 583.358398438 c 1
 382.9921875 698.80859375 l 1
 409.374023438 694.3515625 435.252929688 685.986328125 455.721679688 674.830078125 c 0
 476.190429688 664.23046875 491.305664062 650.844726562 503.576171875 635.232421875 c 0
 515.90234375 619.611328125 525.439453125 601.763671875 531.798828125 581.686523438 c 0
 538.15625 561.611328125 541.390625 539.298828125 540.888671875 519.221679688 c 0
 540.442382812 498.583007812 536.258789062 480.178710938 528.1171875 461.771484375 c 0
 519.973632812 443.3671875 507.927734375 424.962890625 490.63671875 407.670898438 c 0
 473.34765625 390.381835938 450.814453125 374.205078125 426.440429688 361.934570312 c 1
 495.990234375 278.330078125 l 1
 500.396484375 284.856445312 504.244140625 291.658203125 507.536132812 298.911132812 c 0
 510.8828125 306.162109375 513.616210938 313.4140625 515.790039062 321.223632812 c 0
 517.911132812 328.474609375 519.471679688 336.279296875 520.475585938 344.090820312 c 1
 657.680664062 344.090820312 l 1
 656.23046875 329.02734375 653.552734375 314.528320312 649.59375 300.030273438 c 0
 645.688476562 285.52734375 640.556640625 270.859375 634.254882812 256.969726562 c 0
 627.952148438 243.024414062 620.479492188 229.528320312 611.946289062 216.701171875 c 0
 603.467773438 203.9296875 593.874023438 191.825195312 583.443359375 180.559570312 c 1
 724.442382812 17.029296875 l 1
 529.844726562 17.029296875 l 1
 482.884765625 73.416015625 l 1
 475.299804688 67.00390625 467.432617188 60.919921875 459.291015625 55.291015625 c 0
 451.204101562 49.6025390625 442.783203125 44.3037109375 434.360351562 39.560546875 c 0
 425.883789062 34.763671875 417.405273438 30.525390625 408.872070312 26.7333984375 c 0
 400.338867188 22.9443359375 391.75 19.5927734375 382.9921875 16.6953125 c 1
 382.9921875 167.565429688 l 0
320.860351562 2.7939453125 m 2
 321.262695312 2.7939453125 321.598632812 3.1298828125 321.598632812 3.5322265625 c 0
 321.598632812 134.743164062 l 1
 320.744140625 134.606445312 l 0
 311.403320312 133.111328125 301.786132812 133.221679688 291.713867188 135.1015625 c 0
 281.583984375 136.983398438 270.994140625 140.6484375 262.033203125 145.4609375 c 0
 253.006835938 150.220703125 245.66796875 156.071289062 239.7578125 162.702148438 c 0
 233.849609375 169.327148438 229.435546875 176.717773438 226.399414062 184.672851562 c 0
 223.303710938 192.62890625 221.592773438 201.18359375 221.372070312 209.693359375 c 1
 221.344726562 208.693359375 221.2890625 208.6171875 221.370117188 209.614257812 c 0
 221.756835938 214.370117188 222.530273438 219.010742188 223.74609375 223.595703125 c 0
 224.959960938 228.1171875 226.619140625 232.599609375 228.6640625 236.971679688 c 0
 230.709960938 241.338867188 233.190429688 245.635742188 236.45703125 250.069335938 c 1
 239.668945312 254.549804688 243.645507812 259.13671875 249.362304688 264.51953125 c 0
 255.079101562 269.904296875 262.5703125 276.005859375 271.083007812 281.739257812 c 1
 279.477539062 287.609375 288.403320312 292.33984375 298.40625 296.893554688 c 1
 321.598632812 269.807617188 l 1
 321.598632812 488.797851562 l 1
 321.443359375 488.997070312 l 0
 314.139648438 498.404296875 308.369140625 509.504882812 305.333984375 518.884765625 c 1
 302.244140625 528.813476562 301.806640625 537.634765625 302.686523438 545.349609375 c 0
 303.56640625 552.489257812 305.706054688 558.528320312 308.946289062 564.020507812 c 0
 312.140625 569.530273438 316.370117188 574.459960938 321.26953125 577.727539062 c 0
 321.598632812 577.947265625 l 1
 321.598632812 701.358398438 l 1
 320.735351562 701.2109375 l 0
 294.658203125 696.734375 269.284179688 687.793945312 248.115234375 676.591796875 c 1
 226.946289062 664.831054688 210.040039062 650.838867188 196.702148438 635.1484375 c 0
 183.311523438 619.459960938 173.453125 601.536132812 167.233398438 584.165039062 c 0
 161.012695312 566.793945312 158.432617188 549.954101562 158.936523438 530.911132812 c 0
 159.497070312 511.864257812 163.1953125 491.130859375 173.052734375 468.725585938 c 0
 182.817382812 447.086914062 198.206054688 423.794921875 217.486328125 403.454101562 c 1
 185.609375 388.947265625 155.686523438 369.60546875 133.137695312 349.665039062 c 0
 110.37109375 329.521484375 95.1962890625 308.80859375 84.783203125 288.65234375 c 0
 74.3681640625 268.3828125 68.705078125 248.534179688 66.85546875 226.635742188 c 0
 65.0087890625 204.793945312 66.9677734375 181.014648438 72.73046875 158.013671875 c 0
 78.5517578125 135.008789062 88.17578125 112.796875 100.999023438 93.64453125 c 0
 113.76953125 74.548828125 129.684570312 58.46484375 150.336914062 44.5810546875 c 0
 170.994140625 30.701171875 196.391601562 19.0693359375 225.640625 11.6298828125 c 0
 254.948242188 4.24609375 288.0859375 1.05859375 320.899414062 2.7958984375 c 0
 321.30078125 2.81640625 321.618164062 3.169921875 321.596679688 3.5712890625 c 0
 320.860351562 2.7939453125 l 2
320.122070312 4.232421875 m 1
 287.140625 2.5634765625 255.063476562 5.73828125 226.00390625 13.0595703125 c 0
 196.913085938 20.4599609375 171.669921875 32.025390625 151.161132812 45.8056640625 c 0
 130.655273438 59.58984375 114.892578125 75.5234375 102.225585938 94.46484375 c 0
 89.505859375 113.462890625 79.9423828125 135.530273438 74.162109375 158.373046875 c 0
 68.4384765625 181.217773438 66.4931640625 204.844726562 68.326171875 226.510742188 c 0
 70.16015625 248.229492188 75.7626953125 267.869140625 86.09375 287.974609375 c 0
 96.4267578125 307.9765625 111.482421875 328.533203125 134.116210938 348.559570312 c 0
 156.751953125 368.578125 186.927734375 388.06640625 219.041015625 402.538085938 c 0
 219.994140625 402.967773438 l 1
 219.270507812 403.721679688 l 0
 200.091796875 423.729492188 184.173828125 447.666992188 174.404296875 469.319335938 c 0
 164.62890625 491.5390625 160.967773438 512.073242188 160.411132812 530.950195312 c 0
 159.911132812 549.834960938 162.461914062 566.461914062 168.622070312 583.666992188 c 0
 174.78515625 600.877929688 184.559570312 618.649414062 197.827148438 634.193359375 c 0
 211.040039062 649.737304688 227.821289062 663.629882812 248.818359375 675.294921875 c 1
 269.569335938 686.275390625 294.737304688 695.135742188 320.122070312 699.606445312 c 1
 320.122070312 578.733398438 l 1
 315.0078125 575.209960938 310.889648438 570.314453125 307.674804688 564.770507812 c 0
 304.334960938 559.106445312 302.126953125 552.875976562 301.219726562 545.517578125 c 0
 300.318359375 537.6171875 300.76953125 528.584960938 303.927734375 518.4375 c 1
 306.995117188 508.958984375 313.056640625 497.444335938 320.122070312 488.29296875 c 1
 320.122070312 273.799804688 l 1
 298.806640625 298.694335938 l 1
 298.302734375 298.466796875 l 0
 288.408203125 293.995117188 278.819335938 288.950195312 270.247070312 282.956054688 c 1
 261.689453125 277.19140625 254.124023438 271.03125 248.350585938 265.59375 c 0
 242.581054688 260.16015625 238.524414062 255.487304688 235.263671875 250.936523438 c 1
 231.950195312 246.440429688 229.409179688 242.038085938 227.328125 237.596679688 c 0
 225.248046875 233.150390625 223.559570312 228.59375 222.3203125 223.974609375 c 0
 221.081054688 219.299804688 220.291992188 214.571289062 219.899414062 209.733398438 c 0
 219.896484375 209.694335938 l 1
 219.897460938 209.654296875 l 0
 220.122070312 200.978515625 221.870117188 192.24609375 225.020507812 184.147460938 c 0
 228.119140625 176.030273438 232.62890625 168.479492188 238.65625 161.719726562 c 0
 244.681640625 154.959960938 252.178710938 148.990234375 261.3359375 144.16015625 c 0
 270.4453125 139.267578125 281.16015625 135.561523438 291.442382812 133.650390625 c 0
 301.37890625 131.795898438 311.077148438 131.677734375 320.122070312 133.016601562 c 1
 320.122070312 4.232421875 l 1
320.860351562 3.5322265625 m 0
 288.12109375 1.7998046875 255.047851562 4.9814453125 225.822265625 12.3447265625 c 0
 196.65234375 19.7646484375 171.33203125 31.36328125 150.749023438 45.193359375 c 0
 130.169921875 59.02734375 114.331054688 75.0361328125 101.612304688 94.0546875 c 0
 88.8408203125 113.129882812 79.2470703125 135.26953125 73.4462890625 158.193359375 c 0
 67.703125 181.116210938 65.7509765625 204.819335938 67.5908203125 226.573242188 c 0
 69.4326171875 248.381835938 75.0654296875 268.125976562 85.4384765625 288.313476562 c 0
 95.8115234375 308.392578125 110.926757812 329.02734375 133.626953125 349.112304688 c 0
 156.327148438 369.1875 186.556640625 388.708007812 218.73828125 403.2109375 c 1
 199.495117188 423.286132812 183.543945312 447.270507812 173.728515625 469.022460938 c 0
 163.912109375 491.334960938 160.232421875 511.96875 159.673828125 530.930664062 c 0
 159.171875 549.89453125 161.737304688 566.627929688 167.927734375 583.916015625 c 0
 174.119140625 601.20703125 183.935546875 619.0546875 197.264648438 634.670898438 c 0
 210.540039062 650.288085938 227.383789062 664.23046875 248.466796875 675.943359375 c 0
 269.549804688 687.099609375 294.870117188 696.022460938 320.860351562 700.483398438 c 1
 320.860351562 578.341796875 l 1
 315.840820312 574.994140625 311.544921875 569.973632812 308.310546875 564.395507812 c 0
 305.020507812 558.817382812 302.846679688 552.682617188 301.953125 545.43359375 c 0
 301.0625 537.625976562 301.506835938 528.69921875 304.630859375 518.661132812 c 0
 307.69921875 509.178710938 313.499023438 498.026367188 320.860351562 488.544921875 c 1
 320.860351562 271.803710938 l 1
 298.606445312 297.793945312 l 1
 288.735351562 293.333007812 279.196289062 288.313476562 270.665039062 282.34765625 c 0
 262.129882812 276.598632812 254.6015625 270.467773438 248.856445312 265.056640625 c 0
 243.11328125 259.6484375 239.096679688 255.018554688 235.860351562 250.502929688 c 0
 232.5703125 246.038085938 230.059570312 241.688476562 227.99609375 237.284179688 c 0
 225.93359375 232.875 224.259765625 228.35546875 223.033203125 223.78515625 c 0
 221.805664062 219.155273438 221.024414062 214.470703125 220.634765625 209.673828125 c 0
 220.857421875 201.081054688 222.586914062 192.4375 225.709960938 184.41015625 c 0
 228.77734375 176.374023438 233.239257812 168.903320312 239.20703125 162.2109375 c 0
 245.174804688 155.515625 252.592773438 149.60546875 261.684570312 144.810546875 c 0
 270.719726562 139.958007812 281.372070312 136.272460938 291.578125 134.375976562 c 0
 301.729492188 132.481445312 311.435546875 132.369140625 320.860351562 133.877929688 c 1
 320.860351562 3.5322265625 l 0
EndSplineSet
Fore
SplineSet
384 703 m 9
 383 586 l 25
 394 567 410 560 410 538 c 24
 410 513 394 503 383 481 c 25
 383 199 l 25
 399 180 l 25
 382 168 l 25
 381 18 l 1
 412.024608958 18.7685828842 467.105403246 57.8417455146 482 72 c 1
 529 16 l 25
 726 17 l 25
 582 182 l 17
 611.957993717 211.68157068 655.084056745 272.110099573 657 343 c 9
 521 345 l 17
 519.68793106 323.510345429 509.591647958 299.358303934 496 278 c 25
 427 363 l 17
 457 363 540 440 540 535 c 3
 540 623 455 700 384 703 c 9
324 705 m 17
 250 705 159 630 159 546 c 0
 159 486.536132812 196 431 219 407 c 1
 203 407 66 335 66 207 c 3
 66 50 220 2 319 3 c 9
 322 132.5 l 17
 262 134 219 157 219 208 c 27
 219 256 268 284 299 300 c 9
 321 272 l 25
 322 488 l 25
 313 507 300 515 300 536 c 3
 300 569 313 562 321 579 c 25
 324 705 l 17
EndSplineSet
EndChar
StartChar: plus
Encoding: 43 43 45
Width: 464
VWidth: 0
Flags: W
HStem: 230 127<43 418>
VStem: 166 127<87 498>
LayerCount: 2
Back
Fore
SplineSet
293 87 m 5
 166 87 l 5
 166 498 l 5
 293 498 l 5
 293 87 l 5
418 357 m 5
 418 230 l 5
 43 230 l 5
 43 357 l 5
 418 357 l 5
EndSplineSet
EndChar
StartChar: comma
Encoding: 44 44 47
Width: 460
VWidth: 0
Flags: HW
LayerCount: 2
Back
Fore
SplineSet
199 -23 m 1
 72 -23 l 1
 109 129 l 1
 236 129 l 1
 199 -23 l 1
EndSplineSet
EndChar
StartChar: one
Encoding: 49 49 30
Width: 311
VWidth: 0
Flags: W
HStem: -0.333008 21G<101 228> 680.667 20G<81.0488 106 101 228>
VStem: 45.4688 60.5312<499 645> 101 127<-0.333008 700.667>
LayerCount: 2
Back
Fore
SplineSet
106 700.666992188 m 25xe0
 106 499 l 1xe0
 101 499 l 1xd0
 45.46875 444 l 1
 45.46875 645 l 1xe0
 101 700.666992188 l 1xd0
 106 700.666992188 l 25xe0
EndSplineSet
Refer: 31 -1 N 1 0 0 1 60 -0.333008 2
EndChar
StartChar: two
Encoding: 50 50 32
Width: 515
VWidth: 0
Flags: HW
LayerCount: 2
Back
SplineSet
64.904296875 1.0556640625 m 1
 460.14453125 0.7138671875 l 1
 460.14453125 123.28125 l 1
 64.904296875 123.28125 l 1
 64.904296875 1.0556640625 l 1
63.68359375 -0.5068359375 m 1
 62.462890625 -0.5068359375 l 1
 62.462890625 125.72265625 l 1
 462.5859375 125.72265625 l 1
 462.5859375 -1.7275390625 l 1
 63.68359375 -1.7275390625 l 1
 63.68359375 -0.5068359375 l 1
188.83203125 565.541015625 m 1
 190.381835938 563.654296875 l 1
 185.026367188 559.254882812 180.501953125 553.930664062 177.025390625 547.93359375 c 1
 174.913085938 549.158203125 l 1
 178.536132812 555.407226562 183.250976562 560.956054688 188.83203125 565.541015625 c 1
174.615234375 549.268554688 m 1
 176.712890625 548.020507812 l 1
 172.474609375 540.8984375 169.131835938 533.280273438 166.762695312 525.337890625 c 1
 164.422851562 526.036132812 l 1
 166.849609375 534.170898438 170.2734375 541.974609375 174.615234375 549.268554688 c 1
164.612304688 526.299804688 m 1
 166.955078125 525.612304688 l 1
 164.544921875 517.396484375 163.330078125 508.875976562 163.348632812 500.314453125 c 1
 160.907226562 500.30859375 l 1
 160.887695312 509.104492188 162.13671875 517.859375 164.612304688 526.299804688 c 1
162.380859375 501.110351562 m 1
 161.875 498.721679688 l 1
 45.4609375 523.333007812 l 1
 45.966796875 525.721679688 l 1
 162.380859375 501.110351562 l 1
62.623046875 588.478515625 m 1
 64.8466796875 587.470703125 l 1
 55.8037109375 567.529296875 49.814453125 546.341796875 47.0791015625 524.618164062 c 1
 44.6572265625 524.922851562 l 1
 47.421875 546.889648438 53.4794921875 568.314453125 62.623046875 588.478515625 c 1
96.8330078125 641.4765625 m 1
 98.6806640625 639.87890625 l 1
 85.0166015625 624.078125 73.650390625 606.4296875 64.9189453125 587.452148438 c 1
 62.7001953125 588.47265625 l 1
 71.5283203125 607.658203125 83.01953125 625.501953125 96.8330078125 641.4765625 c 1
142.986328125 678.87890625 m 1
 144.158203125 676.736328125 l 1
 126.841796875 667.262695312 111.430664062 654.665039062 98.7021484375 639.581054688 c 1
 96.8359375 641.155273438 l 1
 109.758789062 656.469726562 125.40625 669.259765625 142.986328125 678.87890625 c 1
209.938476562 703.205078125 m 1
 210.426757812 700.8125 l 1
 187.291015625 696.08984375 164.962890625 688.034179688 144.142578125 676.89453125 c 1
 142.990234375 679.046875 l 1
 164.01953125 690.297851562 186.5703125 698.435546875 209.938476562 703.205078125 c 1
208.95703125 701.881835938 m 1
 211.3984375 701.881835938 l 1
 211.3984375 577.264648438 l 1
 208.95703125 577.264648438 l 1
 208.95703125 701.881835938 l 1
209.65234375 578.512695312 m 1
 210.634765625 576.27734375 l 1
 203.35546875 573.076171875 196.534179688 568.919921875 190.350585938 563.918945312 c 1
 188.815429688 565.817382812 l 1
 195.166992188 570.955078125 202.173828125 575.224609375 209.65234375 578.512695312 c 1
180.434570312 322.702148438 m 1
 182.073242188 320.891601562 l 1
 139.0859375 281.967773438 102.381835938 236.624023438 73.267578125 186.470703125 c 1
 71.15625 187.697265625 l 1
 100.396484375 238.067382812 137.259765625 283.608398438 180.434570312 322.702148438 c 1
249.670898438 378.220703125 m 1
 251.157226562 376.283203125 l 1
 216.0234375 349.346679688 l 1
 182.060546875 320.458984375 l 1
 180.478515625 322.318359375 l 1
 214.48828125 351.247070312 l 1
 249.670898438 378.220703125 l 1
251.141601562 376.271484375 m 1
 249.686523438 378.232421875 l 1
 308.674804688 421.985351562 l 1
 310.129882812 420.024414062 l 1
 251.141601562 376.271484375 l 1
310.530273438 420.34765625 m 1
 309.040039062 422.28125 l 1
 320.30078125 430.963867188 330.579101562 440.850585938 339.694335938 451.763671875 c 1
 341.567382812 450.19921875 l 1
 332.338867188 439.149414062 321.931640625 429.139648438 310.530273438 420.34765625 c 1
341.440429688 449.950195312 m 1
 339.549804688 451.495117188 l 1
 344.095703125 457.063476562 347.844726562 463.237304688 350.689453125 469.83984375 c 1
 352.931640625 468.873046875 l 1
 349.997070312 462.063476562 346.130859375 455.694335938 341.440429688 449.950195312 c 1
352.654296875 468.833984375 m 1
 350.470703125 469.92578125 l 1
 353.825195312 476.639648438 355.654296875 484.012695312 355.827148438 491.517578125 c 1
 358.268554688 491.4609375 l 1
 358.086914062 483.596679688 356.169921875 475.870117188 352.654296875 468.833984375 c 1
358.66015625 491.459960938 m 1
 356.21875 491.499023438 l 1
 356.344726562 499.459960938 355.5234375 507.407226562 353.7734375 515.173828125 c 1
 356.155273438 515.7109375 l 1
 357.947265625 507.754882812 358.7890625 499.614257812 358.66015625 491.459960938 c 1
355.9765625 515.767578125 m 1
 353.596679688 515.22265625 l 1
 351.67578125 523.608398438 348.727539062 531.724609375 344.81640625 539.387695312 c 1
 346.991210938 540.497070312 l 1
 350.993164062 532.655273438 354.010742188 524.349609375 355.9765625 515.767578125 c 1
347.068359375 540.471679688 m 1
 344.85546875 539.440429688 l 1
 340.844726562 548.041992188 334.4921875 555.340820312 326.525390625 560.500976562 c 1
 327.852539062 562.549804688 l 1
 336.205078125 557.141601562 342.864257812 549.489257812 347.068359375 540.471679688 c 1
327.821289062 562.530273438 m 1
 326.549804688 560.446289062 l 1
 314.2109375 567.971679688 300.588867188 573.15234375 286.368164062 575.727539062 c 1
 286.803710938 578.129882812 l 1
 301.319335938 575.500976562 315.225585938 570.212890625 327.821289062 562.530273438 c 1
286.354492188 578.094726562 m 1
 286.354492188 575.653320312 l 1
 265.600585938 575.653320312 l 1
 265.600585938 703.102539062 l 1
 286.745117188 703.102539062 l 1
 286.745117188 700.661132812 l 1
 268.041992188 700.661132812 l 1
 268.041992188 578.094726562 l 1
 286.354492188 578.094726562 l 1
319.8984375 699.01171875 m 1
 319.333984375 696.63671875 l 1
 308.697265625 699.165039062 297.813476562 700.509765625 286.881835938 700.649414062 c 1
 286.913085938 703.090820312 l 1
 298.024414062 702.94921875 309.086914062 701.58203125 319.8984375 699.01171875 c 1
351.157226562 690.138671875 m 1
 350.372070312 687.827148438 l 1
 340.15234375 691.299804688 329.766601562 694.26953125 319.254882812 696.723632812 c 1
 319.809570312 699.100585938 l 1
 330.399414062 696.62890625 340.862304688 693.637695312 351.157226562 690.138671875 c 1
406.446289062 654.565429688 m 1
 404.741210938 652.817382812 l 1
 389.095703125 668.081054688 370.560546875 680.067382812 350.223632812 688.07421875 c 1
 351.118164062 690.345703125 l 1
 371.7578125 682.219726562 390.568359375 670.055664062 406.446289062 654.565429688 c 1
450.41796875 595.396484375 m 1
 448.2578125 594.259765625 l 1
 436.853515625 615.927734375 422.143554688 635.686523438 404.65625 652.825195312 c 1
 406.365234375 654.569335938 l 1
 424.034179688 637.252929688 438.896484375 617.2890625 450.41796875 595.396484375 c 1
471.576171875 528.947265625 m 1
 469.158203125 528.609375 l 1
 465.961914062 551.517578125 458.825195312 573.697265625 448.069335938 594.162109375 c 1
 450.23046875 595.298828125 l 1
 461.118164062 574.583984375 468.340820312 552.134765625 471.576171875 528.947265625 c 1
471.783203125 462.125976562 m 1
 469.368164062 462.485351562 l 1
 472.619140625 484.325195312 472.694335938 506.520507812 469.592773438 528.380859375 c 1
 472.010742188 528.724609375 l 1
 475.145507812 506.629882812 475.068359375 484.198242188 471.783203125 462.125976562 c 1
456.548828125 412.465820312 m 1
 454.3359375 413.497070312 l 1
 461.625976562 429.158203125 466.71875 445.751953125 469.469726562 462.806640625 c 1
 471.879882812 462.41796875 l 1
 469.09375 445.140625 463.934570312 428.33203125 456.548828125 412.465820312 c 1
443.982421875 392.026367188 m 1
 442.096679688 393.577148438 l 1
 447.00390625 399.543945312 451.032226562 406.182617188 454.05859375 413.291015625 c 1
 456.3046875 412.333984375 l 1
 453.1875 405.01171875 449.037109375 398.172851562 443.982421875 392.026367188 c 1
414.317382812 364.368164062 m 1
 412.846679688 366.317382812 l 1
 423.548828125 374.388671875 433.392578125 383.540039062 442.221679688 393.625976562 c 1
 444.059570312 392.017578125 l 1
 435.119140625 381.805664062 425.15234375 372.540039062 414.317382812 364.368164062 c 1
412.5859375 366.120117188 m 1
 414.044921875 364.162109375 l 1
 325.379882812 298.15234375 l 1
 294.141601562 273.551757812 l 1
 292.630859375 275.469726562 l 1
 323.895507812 300.091796875 l 1
 412.5859375 366.120117188 l 1
293.013671875 275.692382812 m 1
 294.553710938 273.797851562 l 1
 277.65234375 260.064453125 261.704101562 245.201171875 246.81640625 229.307617188 c 1
 245.03515625 230.9765625 l 1
 259.997070312 246.951171875 276.02734375 261.889648438 293.013671875 275.692382812 c 1
244.909179688 231.126953125 m 1
 246.701171875 229.46875 l 1
 234.213867188 215.977539062 222.747070312 201.57421875 212.397460938 186.379882812 c 1
 210.379882812 187.754882812 l 1
 220.797851562 203.048828125 232.33984375 217.546875 244.909179688 231.126953125 c 1
211.349609375 187.8359375 m 1
 211.349609375 185.39453125 l 1
 72.2783203125 185.39453125 l 1
 72.2783203125 187.8359375 l 1
 211.349609375 187.8359375 l 1
EndSplineSet
Fore
SplineSet
209.083007812 702.916992188 m 4
 113.786132812 688.916992188 54 608 45 524 c 4
 163 499 l 0
 163 561.030307325 208.552734375 576.678710938 209.092773438 576.678710938 c 4
 209.096679688 576.678710938 209.09765625 576.677734375 209.09765625 576.676757812 c 4
 209.09765625 576.674804688 209.092773438 576.671875 209.083007812 576.666992188 c 4
 209.083007812 702.916992188 l 4
463 127 m 1
 463 0 l 1
 62 0 l 1
 62 127 l 1
 463 127 l 1
EndSplineSet
EndChar
StartChar: four
Encoding: 52 52 34
Width: 233
VWidth: 0
Flags: W
HStem: 0 21G<290 417> 145 127<306.5 471> 681 20G<290 417>
VStem: 43 190<145 272> 290 127<0 701>
LayerCount: 2
Back
SplineSet
293.505859375 697.932617188 m 1
 293.16015625 0.9658203125 l 1
 410.9921875 0.9658203125 l 1
 410.9921875 147.696289062 l 1
 468.205078125 147.696289062 l 1
 468.205078125 269.419921875 l 1
 410.9921875 269.419921875 l 1
 410.9921875 697.932617188 l 1
 293.505859375 697.932617188 l 1
291.944335938 699.149414062 m 1
 291.944335938 700.365234375 l 1
 413.424804688 700.365234375 l 1
 413.424804688 271.852539062 l 1
 470.63671875 271.852539062 l 1
 470.63671875 145.263671875 l 1
 413.424804688 145.263671875 l 1
 413.424804688 -1.466796875 l 1
 290.728515625 -1.466796875 l 1
 290.728515625 699.149414062 l 1
 291.944335938 699.149414062 l 1
230.450195312 147.696289062 m 1
 230.791015625 269.419921875 l 1
 182.41015625 269.419921875 l 1
 230.791015625 352.6953125 l 1
 230.791015625 589.158203125 l 1
 45.626953125 270.30859375 l 1
 45.626953125 147.696289062 l 1
 230.450195312 147.696289062 l 1
232.006835938 146.479492188 m 1
 232.006835938 145.263671875 l 1
 43.1943359375 145.263671875 l 1
 43.1943359375 270.963867188 l 1
 233.22265625 598.19140625 l 1
 233.22265625 352.040039062 l 1
 186.63671875 271.852539062 l 1
 233.22265625 271.852539062 l 1
 233.22265625 146.479492188 l 1
 232.006835938 146.479492188 l 1
EndSplineSet
Fore
SplineSet
233 272 m 29
 233 144.666666667 l 25
 43 145 l 25
 43 272 l 25
 233 598 l 25
 233 351 l 25
 187 272 l 25
 233 272 l 29
EndSplineSet
Refer: 33 -1 N 0.410224 0 0 1 298.296 145 2
Refer: 31 -1 N 1 0 0 1 249 0 2
Colour: ff0000
EndChar
StartChar: six
Encoding: 54 54 76
Width: 1024
VWidth: 0
Flags: HW
LayerCount: 2
Back
Fore
SplineSet
435 698 m 13
 435 573 l 21
 376 568 372 536 368 498 c 4
 363.917293404 459.214287336 363 438 360 399 c 21
 383.387018482 409.795672827 408.105375518 415.241492678 436 415 c 13
 436 287 l 21
 404 288 368 260 368 202 c 4
 368 165 395 128 436 128 c 13
 436 0 l 21
 267 0 246 205 246 365 c 28
 246 514 274 704 435 698 c 13
553 537 m 13
 659 600 l 21
 626 656 568 698 490 698 c 13
 490 572 l 21
 518.895507812 569.77734375 539 558 553 537 c 13
490 415 m 13
 490 287 l 21
 524 287 558 251 558 209 c 4
 558 168 535 131 490 128 c 13
 490 1 l 21
 582 2 674 86 674 210 c 4
 674 290 616 415 490 415 c 13
EndSplineSet
Validated: 41
Colour: ff0000
EndChar
StartChar: nine
Encoding: 57 57 91
Width: 1024
VWidth: 0
Flags: HW
LayerCount: 2
Back
Fore
SplineSet
611 1 m 9
 611 126 l 17
 670 131 674 163 678 201 c 0
 682.083007812 239.786132812 683 261 686 300 c 17
 662.61328125 289.204101562 637.89453125 283.758789062 610 284 c 9
 610 412 l 17
 642 411 678 439 678 497 c 0
 678 534 651 571 610 571 c 9
 610 699 l 17
 779 699 800 494 800 334 c 24
 800 185 772 -5 611 1 c 9
493 162 m 9
 387 99 l 17
 420 43 478 1 556 1 c 9
 556 127 l 17
 527.104492188 129.22265625 507 141 493 162 c 9
556 284 m 9
 556 412 l 17
 522 412 488 448 488 490 c 0
 488 531 511 568 556 571 c 9
 556 698 l 17
 464 697 372 613 372 489 c 0
 372 409 430 284 556 284 c 9
EndSplineSet
Validated: 41
Colour: ff0000
EndChar
StartChar: colon
Encoding: 58 58 43
Width: 167
VWidth: 0
Flags: HW
LayerCount: 2
Back
Fore
SplineSet
2.537109375 360.309570312 m 4
 2.537109375 402.39453125 35.7626953125 435.620117188 77.84765625 435.620117188 c 4
 119.932617188 435.620117188 153.157226562 402.39453125 153.157226562 360.309570312 c 4
 153.157226562 318.224609375 119.932617188 285 77.84765625 285 c 4
 35.7626953125 285 2.537109375 318.224609375 2.537109375 360.309570312 c 4
2.537109375 70.3095703125 m 0
 2.537109375 112.39453125 35.7626953125 145.620117188 77.84765625 145.620117188 c 0
 119.932617188 145.620117188 153.157226562 112.39453125 153.157226562 70.3095703125 c 0
 153.157226562 28.224609375 119.932617188 -5 77.84765625 -5 c 0
 35.7626953125 -5 2.537109375 28.224609375 2.537109375 70.3095703125 c 0
EndSplineSet
EndChar
StartChar: semicolon
Encoding: 59 59 93
Width: 167
VWidth: 0
Flags: HW
LayerCount: 2
Back
Fore
SplineSet
176 -23 m 1
 49 -23 l 1
 86 129 l 1
 213 129 l 1
 176 -23 l 1
89.537109375 360.309570312 m 0
 89.537109375 402.39453125 122.762695312 435.620117188 164.84765625 435.620117188 c 0
 206.932617188 435.620117188 240.157226562 402.39453125 240.157226562 360.309570312 c 0
 240.157226562 318.224609375 206.932617188 285 164.84765625 285 c 0
 122.762695312 285 89.537109375 318.224609375 89.537109375 360.309570312 c 0
EndSplineSet
Validated: 1
EndChar
StartChar: equal
Encoding: 61 61 39
Width: 396
VWidth: 0
Flags: W
HStem: 200 127<30 371> 380 127<30 371>
VStem: 30 341<200 327 380 507>
LayerCount: 2
Back
Fore
SplineSet
371 507 m 5
 371 380 l 5
 30 380 l 5
 30 507 l 5
 371 507 l 5
371 327 m 5
 371 200 l 5
 30 200 l 5
 30 327 l 5
 371 327 l 5
EndSplineSet
EndChar
StartChar: greater
Encoding: 62 62 97
Width: 1024
VWidth: 0
Flags: H
LayerCount: 2
Back
SplineSet
648.829101562 336.307617188 m 5
 215.293945312 158.299804688 l 5
 215.293945312 244.323242188 l 5
 521.6875 368.26953125 l 5
 215.293945312 492.993164062 l 5
 215.293945312 579.12890625 l 5
 648.829101562 401.005859375 l 5
 648.829101562 336.307617188 l 5
EndSplineSet
Fore
SplineSet
216 579 m 29
 216 479 l 29
 476 371 l 29
 215 265 l 29
 215 158 l 29
 650 337 l 29
 650 401 l 29
 216 579 l 29
EndSplineSet
EndChar
StartChar: question
Encoding: 63 63 41
Width: 440
VWidth: 0
Flags: W
HStem: -22 150.62<124.411 231.284> 580 120<160 276>
VStem: 41 119<495 580> 102.537 150.62<-0.127075 106.747> 115 129<166 305> 276 122<416 580>
LayerCount: 2
Back
SplineSet
244.517578125 305.7734375 m 1
 244.517578125 166.754882812 l 1
 114.020507812 166.754882812 l 1
 114.020507812 416.254882812 l 1
 266.052734375 416.254882812 l 1
 266.052734375 586.173828125 l 1
 160.958984375 586.173828125 l 1
 160.958984375 498.129882812 l 1
 39.8828125 498.129882812 l 1
 39.8828125 612.533203125 l 2
 39.8828125 625.430664062 42.8544921875 638.333007812 45.994140625 648.986328125 c 0
 49.8662109375 659.640625 55.3603515625 668.051757812 62.4267578125 675.342773438 c 0
 69.4912109375 682.634765625 78.1845703125 688.799804688 90.802734375 693.288085938 c 0
 103.422851562 697.77734375 120.020507812 700.576171875 136.508789062 700.576171875 c 2
 302.671875 700.576171875 l 2
 318.263671875 700.576171875 333.963867188 697.77734375 346.190429688 693.848632812 c 0
 358.4140625 689.922851562 367.220703125 683.754882812 374.510742188 677.026367188 c 0
 381.745117188 670.293945312 387.520507812 661.883789062 391.670898438 651.2265625 c 0
 395.819335938 640.012695312 398.401367188 626.551757812 398.401367188 612.533203125 c 2
 398.401367188 394.944335938 l 2
 398.401367188 381.483398438 395.427734375 368.588867188 392.288085938 357.373046875 c 0
 388.36328125 346.715820312 382.754882812 338.301757812 375.6875 331.013671875 c 0
 368.567382812 323.71875 359.987304688 317.5546875 347.537109375 313.065429688 c 0
 335.142578125 308.58203125 318.87890625 305.7734375 302.78515625 305.7734375 c 2
 244.517578125 305.7734375 l 1
118.39453125 114.543945312 m 0
 123.946289062 122.115234375 131.010742188 128.677734375 139.086914062 133.615234375 c 0
 147.1640625 138.543945312 156.19140625 141.909179688 165.669921875 143.3671875 c 0
 175.090820312 144.883789062 185.016601562 144.435546875 194.4375 142.19140625 c 0
 203.860351562 139.950195312 212.719726562 135.85546875 220.403320312 130.301757812 c 0
 228.0859375 124.803710938 234.591796875 117.798828125 239.526367188 109.778320312 c 0
 244.461914062 101.7578125 247.825195312 92.7841796875 249.284179688 83.251953125 c 0
 250.744140625 73.71875 250.29296875 63.625 248.106445312 54.318359375 c 0
 245.920898438 45.0634765625 241.993164062 36.4794921875 236.610351562 29.0234375 c 0
 231.171875 21.5625 224.2734375 15.1728515625 216.197265625 10.2900390625 c 0
 208.122070312 5.4130859375 198.869140625 2.0478515625 188.943359375 0.58984375 c 0
 178.9609375 -0.8681640625 168.360351562 -0.4189453125 158.771484375 1.822265625 c 0
 149.182617188 4.0107421875 140.657226562 8.05078125 133.311523438 13.3759765625 c 0
 125.908203125 18.7587890625 119.684570312 25.4873046875 114.916992188 33.45703125 c 0
 110.206054688 41.416015625 106.954101562 50.5556640625 105.55078125 60.08984375 c 0
 104.092773438 69.623046875 104.431640625 79.6083984375 106.6171875 88.919921875 c 0
 108.803710938 98.22265625 112.84375 106.916992188 118.39453125 114.543945312 c 0
EndSplineSet
Fore
SplineSet
102.537109375 53.3095703125 m 4xd4
 102.537109375 95.39453125 135.762695312 128.620117188 177.84765625 128.620117188 c 4
 219.932617188 128.620117188 253.157226562 95.39453125 253.157226562 53.3095703125 c 4
 253.157226562 11.224609375 219.932617188 -22 177.84765625 -22 c 4
 135.762695312 -22 102.537109375 11.224609375 102.537109375 53.3095703125 c 4xd4
160 495 m 25xe4
 41 495 l 1
 41 495 41 593 41 626 c 0xe4
 41 674.010742188 81.0537109375 699.686523438 124 700 c 2
 312 701.372070312 l 1
 374.5 701.372070312 398 659 398 622 c 1
 398 380 l 1
 398 332 353 305 313 305 c 1
 244 305 l 9
 244 166 l 25
 115 166 l 25
 115 416 l 25xcc
 276 416 l 25
 276 580 l 25
 160 580 l 25
 160 495 l 25xe4
EndSplineSet
EndChar
StartChar: at
Encoding: 64 64 40
Width: 886
VWidth: 0
Flags: HW
LayerCount: 2
Back
Fore
SplineSet
704.372070312 128.10546875 m 13
 748.787109375 50.482421875 l 21
 673.9375 -11.892578125 565.752929688 -35.1279296875 437.407226562 -35.802734375 c 4
 200.125 -37.0498046875 43.197265625 118.412109375 43.197265625 340.467773438 c 4
 43.197265625 566.837890625 234.065429688 743.41015625 489.802734375 743.41015625 c 4
 663.0703125 743.41015625 840.349609375 617.725585938 840.349609375 443.178710938 c 4
 840.349609375 231.934570312 695.728515625 141.319335938 568.39453125 147.10546875 c 4
 524.538085938 149.09765625 503.525390625 168.3125 493.544921875 192.014648438 c 5
 475.565429688 170.3125 438.6953125 147.10546875 380.04296875 147.10546875 c 4
 298.671875 147.10546875 232.137695312 208.069335938 231.5703125 300.547851562 c 4
 230.491210938 476.446289062 358.815429688 550.047851562 444.892578125 550.047851562 c 4
 509.350585938 550.047851562 530.969726562 523.849609375 545.940429688 507.6328125 c 13
 553.91015625 535.077148438 l 29
 649.482421875 535.077148438 l 29
 588.107421875 316.3203125 l 30
 583.1171875 296.360351562 573.451171875 251.790039062 594.592773438 250.677734375 c 4
 665.700195312 246.934570312 730.549804688 306.78515625 730.549804688 443.177734375 c 4
 730.549804688 561.364257812 589.725585938 639.174804688 491.049804688 639.174804688 c 4
 285.232421875 639.174804688 146.759765625 496.365234375 146.759765625 337.97265625 c 4
 146.759765625 172.71875 271.044921875 61.275390625 437.407226562 61.275390625 c 4
 579.622070312 61.275390625 658.21484375 98.0087890625 704.372070312 128.10546875 c 13
EndSplineSet
EndChar
StartChar: A
Encoding: 65 65 0
Width: 577
VWidth: 0
Flags: HW
HStem: 0 21G<50 192.371 385.294 527> 680 20G<237 380.314>
VStem: 176 17<549.098 582>
LayerCount: 2
Back
Fore
SplineSet
237 700 m 25
 376 700 l 25
 527 0 l 25
 390 0 l 25
 370 85 l 25
 276 85 l 25
 306 224 l 25
 340 224 l 25
 237 700 l 25
176 582 m 25
 193 582 l 25
 254 302 l 25
 188 0 l 25
 50 0 l 25
 176 582 l 25
EndSplineSet
Colour: ff0000
EndChar
StartChar: B
Encoding: 66 66 1
Width: 530
VWidth: 0
Flags: HW
HStem: -2 122<256 326.687> -1 21G<50 191> 287 122<254 323.579> 575 124<253 324.291> 679 20G<50 191>
VStem: 50 141<-1 699> 355 124<147.412 258.663 440.864 545.692>
LayerCount: 2
Back
Fore
SplineSet
266 120 m 17xb6
 353 120 366 176.98828125 366 203 c 3
 366 225 355 287 265 287 c 9
 265 409 l 17
 325 409 364 444 364 495 c 27
 364 545 323 574 264 575 c 9
 264 699 l 17
 433 696 489 585 489 511 c 7
 489 406 441 353 427 350 c 1
 455 331 490 270 490 195 c 3
 490 66 388 -1 267 -2 c 9
 266 120 l 17xb6
EndSplineSet
Refer: 2 -1 N 1 0 0 1 24 -2 2
Colour: ff0000
EndChar
StartChar: C
Encoding: 67 67 12
Width: 533
VWidth: 0
Flags: HW
HStem: -7.5 197.25 185 10.1625G<50.375 191.375> 514.072 9.67858G<50.375 191.375>
VStem: 50.125 186.75 50.375 141<185 523.75> 345.875 138<144.469 180 516 551.531>
LayerCount: 2
Back
Fore
SplineSet
298.875 132.333007812 m 17x24
 298.875 132.333007812 330.819335938 140.889648438 340.875 164 c 0
 346.228515625 176.302734375 345.875 187 345.875 201 c 26
 345.875 231 l 25
 483.875 180 l 17
 483.875 84.48046875 391.583984375 -8.6669921875 298.875 -8.6669921875 c 9
 298.875 132.333007812 l 17x24
298.875 563.666992188 m 13
 298.875 704.666992188 l 21
 391.583984375 704.666992188 483.875 611.51953125 483.875 516 c 13
 345.875 465 l 29
 345.875 495 l 30
 345.875 509 346.228515625 519.697265625 340.875 532 c 4
 330.819335938 555.110351562 298.875 563.666992188 298.875 563.666992188 c 13
EndSplineSet
Refer: 13 -1 N -1 0 0 1 515.375 0 2
Colour: ff0000
EndChar
StartChar: H
Encoding: 72 72 21
Width: 524
VWidth: 0
Flags: W
HStem: 0 21G<44 185 304 445> 283 138<168 214 275 321> 680 20G<44 185 304 445>
VStem: 44 141<0 700> 168 46<283 421> 275 46<283 421> 304 141<0 700>
LayerCount: 2
Back
SplineSet
48.5830078125 698.9296875 m 1
 48.5830078125 467.530273438 48.8720703125 235.661132812 48.8720703125 4.59375 c 1
 94.2724609375 4.59375 140.000976562 4.8798828125 185.174804688 4.8798828125 c 1
 185.174804688 282.04296875 l 1
 185.4765625 282.344726562 186.294921875 283.163085938 186.596679688 283.46484375 c 1
 195.317382812 283.46484375 204.407226562 283.75390625 212.892578125 283.75390625 c 1
 212.892578125 329.154296875 212.607421875 374.8828125 212.607421875 420.056640625 c 1
 186.596679688 420.056640625 l 1
 186.294921875 420.358398438 185.4765625 421.176757812 185.174804688 421.478515625 c 1
 185.174804688 513.915039062 184.885742188 606.729492188 184.885742188 698.9296875 c 1
 48.5830078125 698.9296875 l 1
47.1611328125 700.350585938 m 1
 47.1611328125 701.772460938 l 1
 186.596679688 701.772460938 l 1
 186.8984375 701.470703125 187.716796875 700.65234375 188.017578125 700.350585938 c 1
 188.017578125 423.18359375 l 1
 196.502929688 423.18359375 205.592773438 422.899414062 214.313476562 422.899414062 c 1
 214.615234375 422.598632812 215.43359375 421.780273438 215.735351562 421.478515625 c 1
 215.735351562 282.04296875 l 1
 215.43359375 281.741210938 214.615234375 280.922851562 214.313476562 280.622070312 c 1
 188.301757812 280.622070312 l 1
 188.301757812 188.41796875 188.017578125 95.609375 188.017578125 3.171875 c 1
 187.716796875 2.8701171875 186.8984375 2.0517578125 186.596679688 1.7509765625 c 1
 47.1611328125 1.7509765625 l 1
 46.859375 2.0517578125 46.041015625 2.8701171875 45.740234375 3.171875 c 1
 45.740234375 700.350585938 l 1
 47.1611328125 700.350585938 l 1
305.708007812 698.502929688 m 1
 305.708007812 421.478515625 l 1
 305.40625 421.176757812 304.587890625 420.358398438 304.286132812 420.056640625 c 1
 295.418945312 420.056640625 286.196289062 419.767578125 277.563476562 419.767578125 c 1
 277.563476562 374.3671875 277.84765625 328.638671875 277.84765625 283.46484375 c 1
 304.286132812 283.46484375 l 1
 304.587890625 283.163085938 305.40625 282.344726562 305.708007812 282.04296875 c 1
 305.708007812 189.606445312 305.997070312 96.796875 305.997070312 4.59375 c 1
 351.397460938 4.59375 397.125976562 4.87890625 442.299804688 4.87890625 c 1
 442.299804688 236.040039062 442.010742188 467.576171875 442.010742188 698.502929688 c 1
 305.708007812 698.502929688 l 1
304.286132812 699.923828125 m 1
 304.286132812 701.345703125 l 1
 443.721679688 701.345703125 l 1
 444.0234375 701.043945312 444.841796875 700.225585938 445.142578125 699.923828125 c 1
 445.142578125 3.171875 l 1
 444.841796875 2.8701171875 444.0234375 2.0517578125 443.721679688 1.7509765625 c 1
 304.286132812 1.7509765625 l 1
 303.984375 2.0517578125 303.166015625 2.8701171875 302.865234375 3.171875 c 1
 302.865234375 280.334960938 l 1
 294.232421875 280.334960938 285.009765625 280.622070312 276.142578125 280.622070312 c 1
 275.840820312 280.922851562 275.022460938 281.741210938 274.720703125 282.04296875 c 1
 274.720703125 421.478515625 l 1
 275.022460938 421.780273438 275.840820312 422.598632812 276.142578125 422.899414062 c 1
 302.581054688 422.899414062 l 1
 302.581054688 514.958007812 302.865234375 607.62890625 302.865234375 699.923828125 c 1
 304.286132812 699.923828125 l 1
EndSplineSet
Fore
SplineSet
321 421 m 5xe4
 321 283 l 5
 275 283 l 5
 275 421 l 5
 321 421 l 5xe4
214 421 m 1xe8
 214 283 l 1
 168 283 l 1
 168 421 l 1
 214 421 l 1xe8
EndSplineSet
Refer: 2 -1 N 1 0 0 1 260 0 2
Refer: 2 -1 N 1 0 0 1 0 0 2
Colour: ff0000
EndChar
StartChar: J
Encoding: 74 74 11
Width: 531
VWidth: 0
Flags: W
HStem: -7.5 197.25 -7.5 246.5<131.072 163.25> 183 15.51G<319.5 460.5> 685.229 14.7714G<319.5 460.5>
VStem: 22.25 141<147.192 239> 264 196.75 319.5 141<183 700>
LayerCount: 2
Back
SplineSet
46.6689453125 179.250976562 m 1025,3,-1
EndSplineSet
Fore
Refer: 17 -1 S -1 0 0 1 486.25 0 2
Refer: 18 -1 N 1 0 0 1 -4.5 0 2
Validated: 21
EndChar
StartChar: K
Encoding: 75 75 7
Width: 510
VWidth: 0
Flags: HW
HStem: 0 21G<42.4982 183.498 318.999 461.498> 680 20G<42.4982 183.498 312.519 457.498>
VStem: 42.4982 141<0 700>
LayerCount: 2
Back
Fore
SplineSet
318.498046875 700 m 1
 457.498046875 700 l 1
 371.498046875 409 l 1
 461.498046875 0 l 25
 323.498046875 0 l 25
 231.498046875 409 l 1
 318.498046875 700 l 1
EndSplineSet
Refer: 2 -1 N 1 0 0 1 -1.50183 0 2
Colour: ff0000
EndChar
StartChar: M
Encoding: 77 77 9
Width: 717
VWidth: 0
Flags: HW
HStem: 0 21G<50 191.065 294.865 408.855> 1.40002 21G<526 667> 680.667 20G<50 168.274> 681.4 20G<526 667>
VStem: 50 141<0 124> 526 141<1.40002 701.4>
LayerCount: 2
Back
Fore
SplineSet
49 698 m 1x96
 159 698 l 1
 350.404296875 235.333007812 l 1
 456 473.788085938 l 1
 466.19921875 473.333007812 l 1
 466.298828125 149.333007812 l 1
 399 -2.6669921875 l 1
 302 -2.6669921875 l 1
 49 606.333007812 l 1
 49 698 l 1x96
49 -2.6669921875 m 1
 49 433.333007812 l 1
 58 433.333007812 l 1
 190.404296875 123.333007812 l 1
 190 -2.6669921875 l 1
 49 -2.6669921875 l 1
EndSplineSet
Refer: 2 -1 N 1 0 0 1 477 -2.26697 2
Validated: 1
EndChar
StartChar: N
Encoding: 78 78 29
Width: 599
VWidth: 0
Flags: HW
HStem: 0 21G<128.769 269.802 471.386 549.769> 680.667 20.333G<128.769 250.351 404.715 545.769>
VStem: 128.769 141<0 244> 404.365 141.404<550 701>
LayerCount: 2
Back
SplineSet
130.987304688 625.6796875 m 1
 129.575195312 625.6796875 l 1
 129.575195312 698.669921875 l 1
 251.677734375 698.669921875 l 1
 546.197265625 170.317382812 l 1
 546.197265625 3.357421875 l 1
 476.190429688 3.357421875 l 1
 129.75390625 624.9921875 l 1
 130.987304688 625.6796875 l 1
130.987304688 625.6796875 m 1
 132.220703125 626.3671875 l 1
 477.848632812 6.181640625 l 1
 543.374023438 6.181640625 l 1
 543.374023438 169.583007812 l 1
 250.01953125 695.845703125 l 1
 132.399414062 695.845703125 l 1
 132.399414062 625.6796875 l 1
 130.987304688 625.6796875 l 1
132.399414062 6.181640625 m 1
 268.072265625 6.181640625 l 1
 268.072265625 245.821289062 l 1
 138.627929688 478.147460938 l 1
 132.399414062 478.147460938 l 1
 132.399414062 6.181640625 l 1
130.987304688 4.76953125 m 1
 129.575195312 4.76953125 l 1
 129.575195312 480.970703125 l 1
 140.287109375 480.970703125 l 1
 270.896484375 246.5546875 l 1
 270.896484375 3.357421875 l 1
 130.987304688 3.357421875 l 1
 130.987304688 4.76953125 l 1
543.374023438 695.845703125 m 1
 407.700195312 695.845703125 l 1
 407.700195312 549.809570312 l 1
 537.14453125 317.90625 l 1
 543.374023438 317.90625 l 1
 543.374023438 695.845703125 l 1
544.786132812 697.2578125 m 1
 546.197265625 697.2578125 l 1
 546.197265625 315.083007812 l 1
 535.486328125 315.083007812 l 1
 404.875976562 549.075195312 l 1
 404.875976562 698.669921875 l 1
 544.786132812 698.669921875 l 1
 544.786132812 697.2578125 l 1
EndSplineSet
Fore
SplineSet
128.76953125 700.666992188 m 1
 238.76953125 700.666992188 l 1
 546.068359375 170 l 1
 549.76953125 0 l 1
 482.76953125 0 l 5
 128.76953125 622 l 1
 128.76953125 700.666992188 l 1
545.76953125 701 m 1
 545.76953125 313 l 1
 537.76953125 313 l 1
 404.365234375 550 l 1
 404.76953125 701 l 1
 545.76953125 701 l 1
128.76953125 0 m 1
 128.76953125 481 l 1
 136.76953125 481 l 1
 270.173828125 244 l 1
 269.76953125 0 l 1
 128.76953125 0 l 1
EndSplineSet
Colour: ff0000
EndChar
StartChar: P
Encoding: 80 80 8
Width: 527
VWidth: 0
Flags: W
HStem: 0 21G<50 191> 680 20G<50 191 250 340.5>
VStem: 50 141<0 700> 334 143<466.418 553.182>
LayerCount: 2
Back
Fore
SplineSet
250 457 m 1
 283 457 l 26
 283 457 334 454.954101562 334 508 c 3
 334 564.010742188 283 561 283 561 c 26
 250 561 l 1
 250 700 l 17
 431 700 477 626 477 512 c 3
 477 369 407 318 250 318 c 9
 250 457 l 1
EndSplineSet
Refer: 2 -1 N 1 0 0 1 6 0 2
Colour: ff0000
EndChar
StartChar: Q
Encoding: 81 81 22
Width: 651
VWidth: 0
Flags: W
HStem: -7.5 197.25 173.75 10.5G<69 210 384 525> 513.75 10G<69 210 384 525>
VStem: 69 141<173.75 523.75> 69.75 186.75 337.5 186.75 384 141<173.75 523.75>
LayerCount: 2
Back
Fore
SplineSet
394.8125 65.9267578125 m 1x20
 504.8125 149.926757812 l 1
 571.21875 51.6318359375 l 1
 464.421875 -50.3681640625 l 5
 394.8125 65.9267578125 l 1x20
EndSplineSet
Refer: 13 -1 N -1 0 0 1 534 0 2
Refer: 13 -1 N 1 0 0 1 60 0 2
EndChar
StartChar: S
Encoding: 83 83 24
Width: 1024
VWidth: 0
Flags: H
LayerCount: 2
Back
SplineSet
325.182617188 553.04296875 m 1
 323.079101562 551.07421875 l 1
 320.712890625 553.603515625 318.09765625 555.885742188 315.272460938 557.889648438 c 1
 316.939453125 560.239257812 l 1
 319.921875 558.124023438 322.68359375 555.713867188 325.182617188 553.04296875 c 1
332.466796875 543.810546875 m 1
 330.028320312 542.275390625 l 1
 328.034179688 545.44140625 325.747070312 548.411132812 323.194335938 551.145507812 c 1
 325.299804688 553.112304688 l 1
 327.977539062 550.244140625 330.375976562 547.130859375 332.466796875 543.810546875 c 1
338.626953125 531.604492188 m 1
 335.954101562 530.528320312 l 1
 334.287109375 534.672851562 332.247070312 538.65625 329.862304688 542.432617188 c 1
 332.297851562 543.971679688 l 1
 334.776367188 540.048828125 336.89453125 535.91015625 338.626953125 531.604492188 c 1
343.517578125 516.51953125 m 1
 340.689453125 515.966796875 l 1
 339.733398438 520.8515625 338.318359375 525.634765625 336.463867188 530.25390625 c 1
 339.137695312 531.328125 l 1
 341.060546875 526.541015625 342.526367188 521.58203125 343.517578125 516.51953125 c 1
345.03125 500.288085938 m 1
 342.150390625 500.237304688 l 1
 342.0546875 505.55078125 341.49609375 510.845703125 340.477539062 516.061523438 c 1
 343.305664062 516.614257812 l 1
 344.356445312 511.232421875 344.932617188 505.76953125 345.03125 500.288085938 c 1
343.451171875 498.690429688 m 1
 342.896484375 501.517578125 l 1
 479.47265625 528.314453125 l 1
 480.02734375 525.487304688 l 1
 343.451171875 498.690429688 l 1
481.350585938 527.35546875 m 1
 478.481445312 527.091796875 l 1
 476.708984375 546.40234375 471.549804688 565.248046875 463.240234375 582.768554688 c 1
 465.84375 584.002929688 l 1
 474.297851562 566.177734375 479.546875 547.001953125 481.350585938 527.35546875 c 1
465.500976562 583.901367188 m 1
 462.891601562 582.680664062 l 1
 453.563476562 602.6328125 441.505859375 621.190429688 427.061523438 637.818359375 c 1
 429.237304688 639.708007812 l 1
 443.856445312 622.877929688 456.060546875 604.095703125 465.500976562 583.901367188 c 1
429.526367188 640.044921875 m 1
 427.340820312 638.166992188 l 1
 413.331054688 654.471679688 396.162109375 667.768554688 376.87109375 677.254882812 c 1
 378.142578125 679.840820312 l 1
 397.783203125 670.182617188 415.262695312 656.645507812 429.526367188 640.044921875 c 1
378.196289062 679.642578125 m 1
 376.951171875 677.044921875 l 1
 354.669921875 687.721679688 330.787109375 694.666992188 306.255859375 697.604492188 c 1
 306.598632812 700.465820312 l 1
 331.443359375 697.491210938 355.630859375 690.456054688 378.196289062 679.642578125 c 1
304.564453125 698.916992188 m 1
 307.4453125 698.916992188 l 1
 307.4453125 564.934570312 l 1
 304.564453125 564.934570312 l 1
 304.564453125 698.916992188 l 1
316.979492188 560.424804688 m 1
 315.306640625 558.079101562 l 1
 312.259765625 560.251953125 309.030273438 562.15234375 305.65234375 563.760742188 c 1
 306.890625 566.362304688 l 1
 310.420898438 564.681640625 313.795898438 562.6953125 316.979492188 560.424804688 c 1
382.1875 19.68359375 m 1
 380.8359375 22.228515625 l 1
 406.208984375 35.7158203125 428.663085938 54.087890625 446.907226562 76.2880859375 c 1
 449.133789062 74.4580078125 l 1
 430.647460938 51.96484375 407.896484375 33.3505859375 382.1875 19.68359375 c 1
449.157226562 74.52734375 m 1
 446.895507812 76.3115234375 l 1
 465.0078125 99.2763671875 478.418945312 125.58203125 486.362304688 153.729492188 c 1
 489.135742188 152.946289062 l 1
 481.088867188 124.435546875 467.50390625 97.7890625 449.157226562 74.52734375 c 1
489.353515625 152.7890625 m 1
 486.595703125 153.625 l 1
 494.834960938 180.79296875 498.556640625 209.127929688 497.615234375 237.501953125 c 1
 500.494140625 237.59765625 l 1
 501.447265625 208.908203125 497.68359375 180.258789062 489.353515625 152.7890625 c 1
500.8359375 237.8671875 m 1
 497.958984375 237.708007812 l 1
 496.685546875 260.729492188 490.185546875 283.157226562 478.951171875 303.290039062 c 1
 481.466796875 304.694335938 l 1
 492.915039062 284.178710938 499.5390625 261.325195312 500.8359375 237.8671875 c 1
481.365234375 304.559570312 m 1
 478.791015625 303.266601562 l 1
 466.034179688 328.65234375 447.389648438 350.619140625 424.415039062 367.333007812 c 1
 426.110351562 369.663085938 l 1
 449.456054688 352.678710938 468.40234375 330.357421875 481.365234375 304.559570312 c 1
425.877929688 369.35546875 m 1
 424.216796875 367.001953125 l 1
 409.009765625 377.734375 392.96484375 387.224609375 376.233398438 395.377929688 c 1
 377.495117188 397.967773438 l 1
 394.366210938 389.747070312 410.544921875 380.177734375 425.877929688 369.35546875 c 1
377.565429688 397.942382812 m 1
 376.284179688 395.361328125 l 1
 360.946289062 402.971679688 345.330078125 410.006835938 329.467773438 416.453125 c 1
 330.551757812 419.123046875 l 1
 346.48046875 412.649414062 362.163085938 405.584960938 377.565429688 397.942382812 c 1
330.5625 418.958007812 m 1
 329.46875 416.291992188 l 1
 319.280273438 420.475585938 308.990234375 424.405273438 298.608398438 428.079101562 c 1
 299.569335938 430.795898438 l 1
 309.99609375 427.10546875 320.331054688 423.159179688 330.5625 418.958007812 c 1
299.583984375 431.009765625 m 1
 298.595703125 428.303710938 l 1
 276.12109375 436.514648438 l 1
 277.109375 439.221679688 l 1
 299.583984375 431.009765625 l 1
232.756835938 460.098632812 m 1
 234.391601562 462.471679688 l 1
 247.874023438 453.177734375 262.388671875 445.478515625 277.64453125 439.528320312 c 1
 276.59765625 436.84375 l 1
 261.134765625 442.875 246.422851562 450.6796875 232.756835938 460.098632812 c 1
212.431640625 485.333007812 m 1
 215.114257812 486.384765625 l 1
 218.905273438 476.716796875 225.486328125 468.39453125 234.020507812 462.475585938 c 1
 232.377929688 460.108398438 l 1
 223.375 466.352539062 216.431640625 475.1328125 212.431640625 485.333007812 c 1
207.762695312 510.177734375 m 1
 210.643554688 510.124023438 l 1
 210.490234375 501.880859375 211.973632812 493.688476562 215.010742188 486.022460938 c 1
 212.331054688 484.961914062 l 1
 209.155273438 492.981445312 207.6015625 501.552734375 207.762695312 510.177734375 c 1
212.3046875 535.684570312 m 1
 215.017578125 534.715820312 l 1
 212.213867188 526.864257812 210.733398438 518.600585938 210.637695312 510.262695312 c 1
 207.756835938 510.295898438 l 1
 207.856445312 518.952148438 209.393554688 527.532226562 212.3046875 535.684570312 c 1
224.528320312 554.615234375 m 1
 226.557617188 552.5703125 l 1
 221.478515625 547.528320312 217.58984375 541.415039062 215.176757812 534.677734375 c 1
 212.463867188 535.649414062 l 1
 215.021484375 542.790039062 219.14453125 549.270507812 224.528320312 554.615234375 c 1
243.013671875 566.864257812 m 1
 244.103515625 564.196289062 l 1
 237.544921875 561.517578125 231.571289062 557.583984375 226.517578125 552.620117188 c 1
 224.498046875 554.674804688 l 1
 229.819335938 559.90234375 236.108398438 564.04296875 243.013671875 566.864257812 c 1
244.776367188 565.3671875 m 1
 241.895507812 565.3671875 l 1
 241.895507812 700.213867188 l 1
 244.776367188 700.213867188 l 1
 244.776367188 565.3671875 l 1
243.581054688 701.751953125 m 1
 244.094726562 698.916015625 l 1
 224.63671875 695.395507812 205.642578125 689.6796875 187.473632812 681.87890625 c 1
 186.336914062 684.526367188 l 1
 204.705078125 692.413085938 223.909179688 698.192382812 243.581054688 701.751953125 c 1
186.329101562 684.502929688 m 1
 187.442382812 681.845703125 l 1
 170.85546875 674.89453125 155.276367188 665.747070312 141.123046875 654.651367188 c 1
 139.345703125 656.918945312 l 1
 153.702148438 668.173828125 169.50390625 677.452148438 186.329101562 684.502929688 c 1
139.223632812 656.986328125 m 1
 141.032226562 654.744140625 l 1
 129.40234375 645.360351562 119.302734375 634.22265625 111.09765625 621.732421875 c 1
 108.689453125 623.314453125 l 1
 117.05859375 636.0546875 127.360351562 647.415039062 139.223632812 656.986328125 c 1
108.481445312 623.236328125 m 1
 110.901367188 621.671875 l 1
 103.907226562 610.853515625 97.931640625 599.409179688 93.05078125 587.486328125 c 1
 90.384765625 588.578125 l 1
 95.33203125 600.665039062 101.390625 612.267578125 108.481445312 623.236328125 c 1
90.5595703125 588.955078125 m 1
 93.1865234375 587.771484375 l 1
 84.490234375 568.469726562 78.7373046875 547.974609375 76.1171875 526.967773438 c 1
 73.2578125 527.325195312 l 1
 75.9130859375 548.6171875 81.7451171875 569.391601562 90.5595703125 588.955078125 c 1
72.9619140625 526.926757812 m 1
 75.828125 526.631835938 l 1
 73.75 506.440429688 75.2509765625 486.041992188 80.26171875 466.372070312 c 1
 77.4697265625 465.661132812 l 1
 72.375 485.659179688 70.849609375 506.3984375 72.9619140625 526.926757812 c 1
77.63671875 465.895507812 m 1
 80.4296875 466.604492188 l 1
 85.7900390625 445.48828125 93.8935546875 425.1640625 104.534179688 406.153320312 c 1
 102.01953125 404.74609375 l 1
 91.2568359375 423.9765625 83.0595703125 444.53515625 77.63671875 465.895507812 c 1
102.018554688 404.799804688 m 1
 104.563476562 406.151367188 l 1
 114.59375 387.264648438 128.956054688 371.022460938 146.474609375 358.7578125 c 1
 144.822265625 356.397460938 l 1
 126.930664062 368.922851562 112.26171875 385.510742188 102.018554688 404.799804688 c 1
144.745117188 356.73828125 m 1
 146.385742188 359.107421875 l 1
 157.572265625 351.359375 169.27734375 344.388671875 181.41796875 338.244140625 c 1
 180.1171875 335.673828125 l 1
 167.858398438 341.876953125 156.040039062 348.916015625 144.745117188 356.73828125 c 1
180.341796875 335.365234375 m 1
 181.662109375 337.92578125 l 1
 193.58984375 331.779296875 205.739257812 326.0703125 218.084960938 320.811523438 c 1
 216.956054688 318.161132812 l 1
 204.545898438 323.447265625 192.33203125 329.185546875 180.341796875 335.365234375 c 1
216.9375 317.739257812 m 1
 218.03125 320.405273438 l 1
 236.36328125 312.887695312 254.876953125 305.8203125 273.555664062 299.209960938 c 1
 272.594726562 296.493164062 l 1
 253.87109375 303.119140625 235.313476562 310.204101562 216.9375 317.739257812 c 1
301.356445312 287.962890625 m 1
 300.177734375 285.333984375 l 1
 291.028320312 289.434570312 281.754882812 293.251953125 272.368164062 296.78125 c 1
 273.381835938 299.478515625 l 1
 282.82421875 295.927734375 292.153320312 292.088867188 301.356445312 287.962890625 c 1
326.470703125 274.861328125 m 1
 324.9765625 272.3984375 l 1
 317.01171875 277.229492188 308.743164062 281.540039062 300.221679688 285.3046875 c 1
 301.385742188 287.940429688 l 1
 310.020507812 284.125976562 318.400390625 279.7578125 326.470703125 274.861328125 c 1
354.2109375 248.323242188 m 1
 351.771484375 246.790039062 l 1
 345.123046875 257.370117188 336.0390625 266.205078125 325.278320312 272.557617188 c 1
 326.743164062 275.038085938 l 1
 337.900390625 268.453125 347.318359375 259.291992188 354.2109375 248.323242188 c 1
364.131835938 221.236328125 m 1
 361.284179688 220.80078125 l 1
 359.885742188 229.9609375 356.591796875 238.728515625 351.61328125 246.543945312 c 1
 354.04296875 248.092773438 l 1
 359.237304688 239.939453125 362.672851562 230.791992188 364.131835938 221.236328125 c 1
363.938476562 190.084960938 m 1
 361.100585938 190.583007812 l 1
 362.861328125 200.619140625 362.935546875 210.877929688 361.322265625 220.938476562 c 1
 364.16796875 221.39453125 l 1
 365.831054688 211.018554688 365.75390625 200.436523438 363.938476562 190.084960938 c 1
353.538085938 162.805664062 m 1
 351.110351562 164.358398438 l 1
 356.220703125 172.344726562 359.766601562 181.228515625 361.560546875 190.538085938 c 1
 364.389648438 189.993164062 l 1
 362.526367188 180.32421875 358.84375 171.098632812 353.538085938 162.805664062 c 1
334.251953125 142.399414062 m 1
 332.547851562 144.72265625 l 1
 339.85546875 150.083007812 346.052734375 156.807617188 350.798828125 164.52734375 c 1
 353.25390625 163.017578125 l 1
 348.3125 154.981445312 341.859375 147.979492188 334.251953125 142.399414062 c 1
306.756835938 129.37109375 m 1
 306.017578125 132.15625 l 1
 315.549804688 134.686523438 324.547851562 138.921875 332.573242188 144.65625 c 1
 334.249023438 142.3125 l 1
 325.940429688 136.375 316.625 131.991210938 306.756835938 129.37109375 c 1
304.564453125 130.573242188 m 1
 307.4453125 130.573242188 l 1
 307.4453125 -2.1123046875 l 1
 304.564453125 -2.1123046875 l 1
 304.564453125 130.573242188 l 1
306.645507812 -3.255859375 m 1
 306.396484375 -0.384765625 l 1
 332.616210938 1.890625 358.088867188 9.5341796875 381.23046875 22.0693359375 c 1
 382.603515625 19.5361328125 l 1
 359.114257812 6.8125 333.258789062 -0.9453125 306.645507812 -3.255859375 c 1
203.28515625 160.493164062 m 1
 205.697265625 162.068359375 l 1
 209.958984375 155.540039062 215.354492188 149.826171875 221.629882812 145.198242188 c 1
 219.918945312 142.879882812 l 1
 213.368164062 147.7109375 207.734375 153.676757812 203.28515625 160.493164062 c 1
192.149414062 184.327148438 m 1
 194.926757812 185.090820312 l 1
 197.178710938 176.904296875 200.7109375 169.125976562 205.39453125 162.043945312 c 1
 202.991210938 160.454101562 l 1
 198.139648438 167.790039062 194.481445312 175.84765625 192.149414062 184.327148438 c 1
189.284179688 212.30859375 m 1
 192.161132812 212.162109375 l 1
 191.694335938 203.041015625 192.668945312 193.904296875 195.046875 185.086914062 c 1
 192.264648438 184.336914062 l 1
 189.807617188 193.4453125 188.801757812 202.885742188 189.284179688 212.30859375 c 1
190.338867188 213.243164062 m 1
 190.875 210.412109375 l 1
 51.70703125 184.047851562 l 1
 51.1708984375 186.87890625 l 1
 190.338867188 213.243164062 l 1
50.361328125 185.556640625 m 1
 53.220703125 185.91015625 l 1
 56.099609375 162.658203125 62.740234375 140.029296875 72.8818359375 118.907226562 c 1
 70.2841796875 117.66015625 l 1
 60.0078125 139.063476562 53.279296875 161.994140625 50.361328125 185.556640625 c 1
70.12890625 117.66796875 m 1
 72.7265625 118.916015625 l 1
 82.87890625 97.77734375 96.4970703125 78.48828125 113.017578125 61.845703125 c 1
 110.97265625 59.8154296875 l 1
 94.2255859375 76.6865234375 80.4208984375 96.240234375 70.12890625 117.66796875 c 1
111.106445312 59.8603515625 m 1
 113.147460938 61.8935546875 l 1
 130.077148438 44.8984375 149.797851562 30.9345703125 171.451171875 20.6103515625 c 1
 170.2109375 18.0087890625 l 1
 148.260742188 28.4755859375 128.268554688 42.630859375 111.106445312 59.8603515625 c 1
170.309570312 17.8759765625 m 1
 171.543945312 20.4794921875 l 1
 194.430664062 9.625 218.881835938 2.4365234375 244.001953125 -0.8232421875 c 1
 243.630859375 -3.6806640625 l 1
 218.211914062 -0.3818359375 193.46875 6.892578125 170.309570312 17.8759765625 c 1
244.776367188 -2.544921875 m 1
 241.895507812 -2.544921875 l 1
 241.895507812 131.870117188 l 1
 244.776367188 131.870117188 l 1
 244.776367188 -2.544921875 l 1
219.953125 143.079101562 m 1
 221.6484375 145.409179688 l 1
 228.517578125 140.413085938 236.12890625 136.522460938 244.203125 133.881835938 c 1
 243.306640625 131.143554688 l 1
 234.947265625 133.877929688 227.06640625 137.905273438 219.953125 143.079101562 c 1
EndSplineSet
Fore
SplineSet
305.916992188 700.916992188 m 0
 411.213867188 700.916992188 480 586 480 526 c 0
 345 502 l 4
 345 551 304.916992188 567.15625 305.916992188 566.666992188 c 0
 305.916992188 700.916992188 l 0
241 700.666992188 m 17
 194 700 73 653 73 508 c 3
 73 403 125.938524828 364.442338858 197 330 c 0
 256.673566328 301.077194959 365 291 365 210 c 27
 365 172 330 142 307 132 c 9
 305 0 l 17
 390 1 497 102 497 214 c 3
 497 320 440.300949413 359.624271814 379 396 c 0
 311.860963336 435.840024857 208 437 208 510 c 3
 208 534 223 560 241 565.666992188 c 9
 241 700.666992188 l 17
EndSplineSet
EndChar
StartChar: V
Encoding: 86 86 26
Width: 560
VWidth: 0
Flags: HW
HStem: 0 21G<247.2 306.633> 680.667 20G<50 199.838 360.064 510>
LayerCount: 2
Back
SplineSet
251.991210938 -1.4990234375 m 2
 251.991210938 1.1142578125 298.665039062 -0.0751953125 300.91796875 -0.0751953125 c 1
 346.65234375 156.604492188 l 1
 189.390625 695.724609375 l 1
 50.0654296875 695.724609375 l 1
 253 0.130859375 l 0
 251.991210938 -1.4990234375 l 2
251.991210938 -1.4990234375 m 1
 250.624023438 -1.8984375 l 1
 46.2666015625 698.57421875 l 1
 191.52734375 698.57421875 l 1
 349.619140625 156.604492188 l 1
 303.0546875 -2.923828125 l 1
 251.991210938 -2.923828125 l 1
 251.991210938 -1.4990234375 l 1
310.532226562 515.54296875 m 1
 309.165039062 515.942382812 l 1
 362.450195312 698.57421875 l 1
 507.7109375 698.57421875 l 1
 389.37109375 292.345703125 l 1
 374.416015625 292.345703125 l 1
 309.165039062 515.142578125 l 1
 310.532226562 515.54296875 l 1
310.532226562 515.54296875 m 1
 311.899414062 515.943359375 l 1
 376.55078125 295.194335938 l 1
 387.234375 295.194335938 l 1
 503.9140625 695.724609375 l 1
 364.586914062 695.724609375 l 1
 311.899414062 515.14453125 l 1
 310.532226562 515.54296875 l 1
EndSplineSet
Fore
SplineSet
510 700 m 1
 387 290 l 1
 377 290 l 1
 310.595703125 514 l 1
 366 700.666992188 l 1
 510 700 l 1
50 700 m 1
 194 700.666992188 l 1
 352.404296875 158 l 1
 300 0 l 1
 253 0 l 1
 50 700 l 1
EndSplineSet
Colour: ff0000
EndChar
StartChar: W
Encoding: 87 87 27
Width: 778
VWidth: 0
Flags: W
HStem: 0 21G<241.2 300.633 471.2 530.633> 680.667 20G<44 193.838 274 423.838 584.064 734>
LayerCount: 2
Back
Fore
SplineSet
734 700 m 1
 611 290 l 1
 601 290 l 1
 534.595703125 514 l 1
 590 700.666992188 l 1
 734 700 l 1
274 700 m 1
 418 700.666992188 l 1
 576.404296875 158 l 1
 524 0 l 1
 477 0 l 1
 274 700 l 1
44 700 m 1
 188 700.666992188 l 1
 346.404296875 158 l 1
 294 0 l 1
 247 0 l 1
 44 700 l 1
EndSplineSet
Colour: ff0000
EndChar
StartChar: X
Encoding: 88 88 35
Width: 453
VWidth: 0
Flags: W
HStem: -0.666992 21G<43 196.365 271.292 423> -0.666992 21G<43 196.365 271.292 423> 680 20.667G<43 196.651 261.578 413>
LayerCount: 2
Back
SplineSet
235.45703125 110.884765625 m 1
 246.0078125 74.7294921875 256.869140625 38.2587890625 267.350585938 2.341796875 c 1
 312.533203125 2.341796875 358.315429688 2.572265625 403.087890625 2.572265625 c 1
 302.219726562 348.831054688 l 1
 302.219726562 349.625 l 1
 335.834960938 465.161132812 369.4140625 581.413085938 402.911132812 696.541992188 c 1
 357.668945312 696.541992188 312.069335938 696.333984375 267.072265625 696.333984375 c 1
 235.45703125 587.999023438 l 1025
202.118164062 697.962890625 m 0
 202.118164062 695.607421875 74.37109375 696.310546875 64.6708984375 696.310546875 c 1
 165.5390625 349.625 l 1
 165.5390625 348.831054688 l 1
 131.923828125 233.4375 98.3447265625 117.327148438 64.8486328125 2.341796875 c 1
 110.233398438 2.341796875 155.97265625 2.5498046875 201.11328125 2.5498046875 c 1
 232.728515625 110.884765625 l 1025
406.413085938 697.56640625 m 1
 305.068359375 349.241210938 l 1
 406.413085938 1.318359375 l 1025
61.345703125 1.318359375 m 1
 162.69140625 349.215820312 l 1
 61.345703125 697.56640625 l 1025
202.118164062 -0.5 m 1
 266.067382812 -0.5 l 1
 265.7265625 -0.244140625 266.067382812 -0.5 265.7265625 -0.244140625 c 0
 264.703125 0.5234375 l 1
 234.166015625 105.1640625 l 1
 224.198242188 71.0078125 213.629882812 35.296875 203.482421875 0.5234375 c 1
 203.141601562 0.267578125 203.482421875 0.5234375 203.141601562 0.267578125 c 0
 202.118164062 -0.5 l 1
266.067382812 699.383789062 m 1
 202.118164062 699.383789062 l 1
 202.118164062 697.962890625 l 1
 203.482421875 698.361328125 l 1
 234.01953125 593.719726562 l 1
 243.987304688 627.875976562 254.555664062 663.587890625 264.703125 698.361328125 c 1
 265.043945312 698.6171875 264.703125 698.361328125 265.043945312 698.6171875 c 0
 266.067382812 699.383789062 l 1
EndSplineSet
Fore
SplineSet
43 -0.6669921875 m 1xa0
 268 700 l 1
 413 700 l 1
 190 -0.6669921875 l 1
 43 -0.6669921875 l 1xa0
43 700.666992188 m 1
 190 700.666992188 l 1
 423 0 l 1
 278 0 l 1
 43 700.666992188 l 1
EndSplineSet
Colour: ff0000
EndChar
StartChar: Y
Encoding: 89 89 36
Width: 556
VWidth: 0
Flags: W
HStem: 0 21G<185 330.696> 680 20.667G<54 206.794 339.059 490>
VStem: 185 145.695<0 276.55>
LayerCount: 2
Back
SplineSet
321.939453125 2.4541015625 m 1
 321.939453125 252.942382812 l 1
 197.298828125 699.001953125 l 1
 60.2958984375 699.001953125 l 1
 184.827148438 253.333007812 l 1
 184.827148438 2.4541015625 l 1
 321.939453125 2.4541015625 l 1
323.366210938 1.02734375 m 1
 323.366210938 -0.3994140625 l 1
 181.973632812 -0.3994140625 l 1
 181.973632812 252.942382812 l 1
 56.5361328125 701.85546875 l 1
 199.46484375 701.85546875 l 1
 324.79296875 253.333007812 l 1
 324.79296875 1.02734375 l 1
 323.366210938 1.02734375 l 1
377.295898438 320.486328125 m 1
 483.280273438 699.001953125 l 1
 346.275390625 699.001953125 l 1
 308.583007812 565.169921875 l 1
 377.295898438 320.486328125 l 1
377.297851562 315.202148438 m 1
 375.924804688 314.81640625 l 1
 305.618164062 565.171875 l 1
 344.115234375 701.85546875 l 1
 487.041992188 701.85546875 l 1
 378.671875 314.817382812 l 1
 377.297851562 315.202148438 l 1
EndSplineSet
Fore
SplineSet
305 565.333007812 m 1
 345 700 l 1
 490 700 l 1
 382 311.333007812 l 1
 305 565.333007812 l 1
54 700.666992188 m 5
 201 700.666992188 l 5
 330.699843759 253 l 4
 330.6953125 0 l 5
 185 0 l 5
 185 252 l 4
 54 700.666992188 l 5
EndSplineSet
Colour: ff0000
EndChar
StartChar: Z
Encoding: 90 90 37
Width: 380
VWidth: 0
Flags: HW
LayerCount: 2
Back
SplineSet
359.372070312 559.251953125 m 1
 360.682617188 558.6953125 l 1
 183.364257812 141.549804688 l 1
 360.795898438 141.549804688 l 1
 360.795898438 -1.005859375 l 1
 27.2626953125 -1.005859375 l 1
 27.2626953125 140.416015625 l 1
 204.694335938 557.828125 l 1
 27.2626953125 557.828125 l 1
 27.2626953125 700.383789062 l 1
 360.795898438 700.383789062 l 1
 360.795898438 559.251953125 l 1
 359.372070312 559.251953125 l 1
359.372070312 559.251953125 m 1
 357.948242188 559.251953125 l 1
 357.948242188 697.53515625 l 1
 30.1103515625 697.53515625 l 1
 30.1103515625 560.676757812 l 1
 209 560.676757812 l 1
 30.1103515625 139.8359375 l 1
 30.1103515625 1.841796875 l 1
 357.948242188 1.841796875 l 1
 357.948242188 138.702148438 l 1
 179.05859375 138.702148438 l 1
 358.061523438 559.809570312 l 1
 359.372070312 559.251953125 l 1
EndSplineSet
Fore
SplineSet
171 140.671875 m 17
 356.5 564 l 1
 356.5 701 l 1
 23 700.666992188 l 1
 23 564.333984375 l 1
 208.964335368 564.333984375 l 1
 23 140.671875 l 1
 23 0 l 1
 356.5 0 l 1
 356.5 141 l 1
 171 140.671875 l 17
EndSplineSet
Colour: ff0000
EndChar
StartChar: asciicircum
Encoding: 94 94 109
Width: 1024
VWidth: 0
Flags: HW
LayerCount: 2
Back
Fore
SplineSet
133.400390625 511.400390625 m 25
 229 512.599609375 l 25
 285.400390625 649.799804688 l 29
 352.799804688 513.799804688 l 25
 455.599609375 515.799804688 l 25
 329.400390625 761.200195312 l 25
 234.200195312 761.200195312 l 25
 133.400390625 511.400390625 l 25
EndSplineSet
EndChar
StartChar: grave
Encoding: 96 96 51
Width: 333
VWidth: 0
Flags: HW
HStem: -23 152<106 196>
VStem: 69 164
LayerCount: 2
Back
Fore
SplineSet
129 605 m 5
 220 605 l 5
 183 757 l 5
 56 757 l 5
 129 605 l 5
EndSplineSet
EndChar
StartChar: a
Encoding: 97 97 51
Width: 520
VWidth: 0
Flags: HWO
LayerCount: 2
Back
Fore
SplineSet
454.891601562 493.880859375 m 25
 456.831054688 0.001953125 l 25
 350.099609375 -0.484375 l 25
 350.099609375 44.634765625 l 17
 329.48828125 22.837890625 287.581054688 4.583984375 257.436523438 0.9716796875 c 9
 257.436523438 125.168945312 l 17
 314.68359375 151.8515625 336.635742188 193.697265625 336.515625 252.278320312 c 24
 336.635742188 307.40234375 296.248046875 360.465820312 257.436523438 368.712890625 c 9
 257.436523438 492.91015625 l 17
 292.104492188 487.453125 326.893554688 471.206054688 349.12890625 448.27734375 c 9
 350.099609375 493.880859375 l 25
 454.891601562 493.880859375 l 25
190 490 m 9
 190 366.772460938 l 17
 139.544921875 341.059570312 116.258789062 299.822265625 116.258789062 244.515625 c 24
 116.258789062 191.149414062 151.189453125 141.665039062 189.03125 129.049804688 c 9
 189.03125 3.8828125 l 17
 78.90234375 30.0810546875 10.4970703125 131.4765625 10.4970703125 250.336914062 c 24
 10.4970703125 367.2578125 92.486328125 473.50390625 190 490 c 9
EndSplineSet
EndChar
StartChar: c
Encoding: 99 99 72
Width: 458
VWidth: 0
Flags: W
HStem: 376.944 1.88965<68.5342 176.522> 496.117 20G<264.008 297.582>
VStem: 67.7461 108.776<110.005 138.608 376.944 405.548>
LayerCount: 2
Back
Fore
SplineSet
264.0078125 105.233398438 m 9
 264.0078125 -0.71875 l 17
 331.155273438 -0.71875 398 65.6328125 398 134.69921875 c 9
 298.048828125 172.575195312 l 25
 298.048828125 150.883789062 l 26
 298.048828125 140.760742188 298.3046875 133.025390625 294.427734375 124.129882812 c 0
 287.14453125 107.419921875 264.0078125 105.233398438 264.0078125 105.233398438 c 9
264.0078125 410.165039062 m 13
 264.0078125 516.1171875 l 21
 331.155273438 516.1171875 398 449.765625 398 380.69921875 c 13
 298.048828125 342.823242188 l 29
 298.048828125 364.514648438 l 30
 298.048828125 374.637695312 298.3046875 382.373046875 294.427734375 391.268554688 c 4
 287.14453125 407.978515625 264.0078125 410.165039062 264.0078125 410.165039062 c 13
EndSplineSet
Refer: 52 -1 N -1 0 0 1 480 0 2
EndChar
StartChar: d
Encoding: 100 100 60
Width: 498
VWidth: 0
Flags: HW
HStem: 0 21G<41 168> 681 20G<41 168>
VStem: 41 127<0 701>
LayerCount: 2
Back
Fore
SplineSet
235.404296875 472.73828125 m 9
 235.404296875 357.510742188 l 17
 147.94921875 355.918945312 138.663085938 278.560546875 138.663085938 238.25390625 c 0
 138.663085938 186.887695312 150.59375 108.403320312 234.435546875 107.788085938 c 9
 234.435546875 0.62109375 l 17
 99.306640625 0.8193359375 28.9013671875 105.21484375 28.9013671875 241.075195312 c 0
 28.9013671875 382.99609375 118.890625 473.2421875 235.404296875 472.73828125 c 9
303 677 m 5
 412.85546875 677 l 5
 412.85546875 1.634765625 l 5
 303 1.634765625 l 5
 303 677 l 5
EndSplineSet
EndChar
StartChar: e
Encoding: 101 101 62
Width: 458
VWidth: 0
Flags: HW
HStem: -7.5 197.25
VStem: 277.5 186.75
LayerCount: 2
Back
Fore
SplineSet
398 382 m 29
 398 213 l 29
 176 213 l 29
 176 318 l 29
 298 318 l 29
 298 344 l 29
 398 382 l 29
EndSplineSet
Refer: 76 99 S 1 0 0 1 0 0 2
EndChar
StartChar: f
Encoding: 102 102 57
Width: 311
VWidth: 0
Flags: W
HStem: 0 21G<92.8555 203.716> 0 21G<92.8555 203.716> 408 107.688<30 263.818> 590 106.417<210.186 263.855>
VStem: 92.8555 110.855<0 355 408 586.403>
LayerCount: 2
Back
Fore
SplineSet
93 355 m 5x38
 203.782226562 355 l 5
 203.782226562 408 l 5
 93 408 l 5
 93 355 l 5x38
29.818359375 515.6875 m 1
 107.818359375 515.522460938 185.818359375 515.302734375 263.818359375 515.6875 c 1
 264 408 l 1
 30 408 l 1
 29.818359375 515.6875 l 1
240.85546875 696.416992188 m 1
 263.85546875 696.272460938 l 1
 263.85546875 590 l 1
 242.342773438 590 l 1
 242.342773438 589.8359375 l 1
 210.264648438 589.474609375 203.85546875 562.12109375 203.85546875 558 c 1
 203.7109375 0 l 1
 162 0 130 0 92.85546875 0 c 1xb8
 93 558 l 1
 92.98046875 558 l 1
 92.98046875 600.337890625 141.924804688 695.352539062 240.85546875 696.296875 c 1
 240.85546875 696.416992188 l 1
EndSplineSet
EndChar
StartChar: h
Encoding: 104 104 61
Width: 502
VWidth: 0
Flags: HW
LayerCount: 2
Back
Fore
SplineSet
41 677 m 5
 150.85546875 677 l 5
 150.85546875 1.634765625 l 5
 41 1.634765625 l 5
 41 677 l 5
327.450195312 0 m 5
 444.150390625 0 l 5
 444.150390625 272.900390625 l 5
 327.450195312 272.900390625 l 5
 327.450195312 0 l 5
444.325195312 270.174804688 m 7
 444.325195312 533.482421875 305 505 213 477 c 4
 213 369 l 7
 216.157226562 369 327.450195312 439 327.450195312 270.174804688 c 4
 444.325195312 270.174804688 l 7
EndSplineSet
EndChar
StartChar: i
Encoding: 105 105 58
Width: 233
VWidth: 0
Flags: HW
LayerCount: 2
Back
Fore
SplineSet
62.14453125 516 m 5
 99.0963541667 515.770008556 136.048177083 515.443353246 173 516 c 5
 172.85546875 0 l 5
 62 0 l 5
 62.14453125 516 l 5
52.7822265625 635.83984375 m 0
 52.7822265625 670.868164062 81.9716796875 700.057617188 117 700.057617188 c 0
 152.028320312 700.057617188 181.217773438 670.868164062 181.217773438 635.83984375 c 0
 181.217773438 600.8125 152.028320312 571.622070312 117 571.622070312 c 0
 81.9716796875 571.622070312 52.7822265625 600.8125 52.7822265625 635.83984375 c 0
EndSplineSet
EndChar
StartChar: k
Encoding: 107 107 55
Width: 478
VWidth: 0
Flags: HW
HStem: 0 21G<0.4982 141.498 276.999 419.498> 680 20G<0.4982 141.498 270.519 415.498>
VStem: 0.4982 141<0 700>
LayerCount: 2
Back
Fore
SplineSet
310.137695312 514 m 1
 416.998046875 514 l 1
 316.219726562 299.34765625 l 1
 416.998046875 0 l 25
 310.877929688 0 l 25
 208.620117188 299.34765625 l 1
 310.137695312 514 l 1
EndSplineSet
Refer: 68 -1 N 1 0 0 1 -200 0 2
EndChar
StartChar: m
Encoding: 109 109 75
Width: 716
VWidth: 0
Flags: W
HStem: 0 21G<64.2002 173.275 64.2002 173.275> 289.175 4.72559<307.45 416.15 542.45 651.15> 417 79<220 281.473> 495.881 20G<66.0645 172.917>
VStem: 64.2002 108.731<0.00195312 515.881> 307.45 108.7<289.175 393.297> 542.45 108.7<289.175 356.672>
LayerCount: 2
Back
SplineSet
542.776367188 0 m 1
 651.552734375 0 l 1
 651.552734375 380.225585938 l 1
 542.776367188 380.225585938 l 1
 542.776367188 0 l 1
416.776367188 0 m 1
 416.776367188 380.225585938 l 1
 308 380.225585938 l 1
 308 0 l 1
 416.776367188 0 l 1
456.002929688 412.4921875 m 1
 456.002929688 512.959960938 l 1
 356.07421875 512.959960938 308 393.775390625 308 380.225585938 c 1
 417.125 380.225585938 l 1
 417.125 384.346679688 423.924804688 412.130859375 456.002929688 412.4921875 c 1
456.002929688 412.4921875 m 1
 503.549804688 412.4921875 l 2
 535.627929688 412.130859375 542.427734375 384.346679688 542.427734375 380.225585938 c 1
 651.552734375 380.225585938 l 1
 651.552734375 422.775390625 603.478515625 512.959960938 503.549804688 512.959960938 c 2
 456.002929688 512.959960938 l 1
 456.002929688 412.4921875 l 1
EndSplineSet
Fore
SplineSet
542.450195312 0 m 1xce
 651.150390625 0 l 1
 651.150390625 293.900390625 l 1
 542.450195312 293.900390625 l 1
 542.450195312 0 l 1xce
651.325195312 289.174804688 m 3
 651.325195312 557.50390625 446 514 374 464 c 0
 416 309 l 3
 416 437.658462605 542.450195312 410 542.450195312 289.174804688 c 0
 651.325195312 289.174804688 l 3
EndSplineSet
Refer: 56 110 N 1 0 0 1 0 0 2
Validated: 37
EndChar
StartChar: n
Encoding: 110 110 54
Width: 480
VWidth: 0
Flags: HW
HStem: 0 21G<64.2002 173.275> 0 21G<64.2002 173.275> 289.175 4.72559<307.45 416.15> 417 79<220 281.473> 495.881 20G<66.0645 172.917>
VStem: 64.2002 108.731<0.00195312 515.881> 307.45 108.7<289.175 393.297>
LayerCount: 2
Back
SplineSet
172.931640625 0 m 13
 64.2001953125 0.001953125 l 29
 66.1396484375 515.880859375 l 29
 171.931640625 515.880859375 l 21
 173.903320312 351.25390625 173.618164062 164.626953125 172.931640625 0 c 13
307.450195312 0 m 5
 416.150390625 0 l 5
 416.150390625 293.900390625 l 5
 307.450195312 293.900390625 l 5
 307.450195312 0 l 5
416.325195312 289.174804688 m 7
 416.325195312 557.50390625 293 521 220 496 c 4
 220 417 l 7
 250.20703125 417 307.450195312 429 307.450195312 289.174804688 c 4
 416.325195312 289.174804688 l 7
EndSplineSet
Refer: 69 117 N 1 0 0 -1.01357 4 522.687 2
Fore
SplineSet
172.931640625 0 m 9xae
 64.2001953125 0.001953125 l 25
 66.1396484375 515.880859375 l 25
 171.931640625 515.880859375 l 17
 173.903320312 351.25390625 173.618164062 164.626953125 172.931640625 0 c 9xae
307.450195312 0 m 1x66
 416.150390625 0 l 1
 416.150390625 293.900390625 l 1
 307.450195312 293.900390625 l 1
 307.450195312 0 l 1x66
416.325195312 289.174804688 m 3
 416.325195312 557.50390625 293 521 220 496 c 0
 220 417 l 3x36
 250.20703125 417 307.450195312 429 307.450195312 289.174804688 c 0
 416.325195312 289.174804688 l 3
EndSplineSet
EndChar
StartChar: r
Encoding: 114 114 56
Width: 368
VWidth: 0
Flags: W
HStem: 0 21G<63 173.861 63 173.861> 409.203 106.484<248.721 304> 496 20G<63.1389 174>
VStem: 63.1445 110.855
LayerCount: 2
Back
Fore
SplineSet
174 272 m 9xd0
 174 432 l 1
 173.96484375 449.954101562 232.672851562 516.104492188 304 515.6875 c 1
 305 409.203125 l 17
 233.860351562 408.70703125 173.928710938 305.229492188 174 272 c 9xd0
EndSplineSet
Refer: 67 -1 N 1 0 0 1 1 0 2
EndChar
StartChar: s
Encoding: 115 115 56
Width: 439
VWidth: 0
Flags: HW
LayerCount: 2
Back
SplineSet
189.940429688 -3.8994140625 m 4
 110.196289062 -3.9892578125 52.130859375 81.4365234375 52.19140625 132.25 c 4
 152.208984375 151.077148438 l 4
 152.491210938 109.099609375 190.693359375 92.7421875 189.940429688 93.06640625 c 4
 189.940429688 -3.8994140625 l 4
237.797851562 512.81640625 m 4
 315.421875 512.81640625 366.130859375 428.099609375 366.130859375 383.868164062 c 4
 266.609375 366.174804688 l 4
 266.609375 402.297851562 237.059570312 414.208007812 237.797851562 413.84765625 c 4
 237.797851562 512.81640625 l 4
189.940429688 512.6328125 m 13
 189.940429688 413.109375 l 21
 176.669921875 408.932617188 165.61328125 389.765625 165.61328125 372.072265625 c 7
 165.61328125 318.256835938 242.1796875 317.40234375 291.673828125 288.032226562 c 4
 336.864257812 261.21484375 378.663085938 232.00390625 378.663085938 153.861328125 c 7
 378.663085938 71.294921875 300.520507812 -3.162109375 237.858398438 -3.8994140625 c 13
 237.858398438 93.41015625 l 21
 254.814453125 100.783203125 281.352539062 122.899414062 281.352539062 150.912109375 c 31
 281.352539062 210.625976562 201.495117188 218.0546875 157.502929688 239.376953125 c 4
 105.1171875 264.767578125 66.0908203125 293.19140625 66.0908203125 370.598632812 c 7
 66.0908203125 477.4921875 155.291992188 512.140625 189.940429688 512.6328125 c 13
EndSplineSet
Refer: 24 83 N 0.7372 0 0 0.7372 44.0751 -3.89952 2
Fore
SplineSet
247 514 m 0
 326.744140625 514.08984375 386.809570312 431.6640625 386.749023438 380.850585938 c 0
 282.731445312 363.0234375 l 0
 279.44921875 396.000976562 246.247070312 406.358398438 247 406.034179688 c 0
 247 514 l 0
182.940429688 -3.8994140625 m 0
 103.196289062 -3.9892578125 41.130859375 77.4365234375 41.19140625 128.25 c 0
 143.208984375 147.077148438 l 0
 143.491210938 115.099609375 183.693359375 102.7421875 182.940429688 103.06640625 c 0
 182.940429688 -3.8994140625 l 0
178.940429688 513.6328125 m 9
 179.940429688 405.109375 l 17
 153.669921875 398.932617188 148.61328125 383.07421875 148.61328125 365.072265625 c 3
 148.61328125 319.758789062 238.9375 311.990234375 297.673828125 285.032226562 c 4
 338.888671875 266.116210938 396.663085938 229.00390625 396.663085938 154.861328125 c 3
 396.663085938 58.294921875 309.520507812 -3.162109375 246.858398438 -3.8994140625 c 9
 246.858398438 101.41015625 l 17
 258.814453125 105.783203125 278.352539062 118.899414062 278.352539062 150.912109375 c 3
 278.352539062 202.697188913 179.7890625 208.845703125 129.502929688 232.376953125 c 0
 74.6494140625 258.045898438 41.0908203125 291.184570312 41.0908203125 369.598632812 c 3
 41.0908203125 466.4921875 140.291992188 514.140625 178.940429688 513.6328125 c 9
EndSplineSet
EndChar
StartChar: t
Encoding: 116 116 75
Width: 311
VWidth: 0
Flags: HW
LayerCount: 2
Back
Fore
SplineSet
92.8330078125 355 m 1
 92.8330078125 408 l 5
 203.782226562 408 l 1
 203.782226562 355 l 1
 92.8330078125 355 l 1
30 515.6875 m 1
 30 408 l 1
 264 408 l 1
 264 515.6875 l 1
 186 515.623194368 108 515.57450437 30 515.6875 c 1
240.85546875 -0.4169921875 m 1
 263.85546875 -0.2724609375 l 1
 263.85546875 106 l 1
 242.342773438 106 l 1
 242.342773438 106.1640625 l 1
 210.264648438 106.525390625 203.85546875 133.87890625 203.85546875 138 c 1
 203.85546875 138 l 1
 203.7109375 697 l 1
 166.758789062 696.76953125 129.807617188 696.443359375 92.85546875 697 c 1
 93 138 l 1
 92.98046875 138 l 1
 92.98046875 95.662109375 141.924804688 0.6474609375 240.85546875 -0.296875 c 1
 240.85546875 -0.4169921875 l 1
EndSplineSet
EndChar
StartChar: u
Encoding: 117 117 72
Width: 476
VWidth: 0
Flags: HW
LayerCount: 2
Back
Refer: 15 85 S 0.731558 0 0 0.730289 10.4221 5.47717 2
Refer: 15 85 N 0.731558 0 0 0.730289 10.4221 5.47717 2
Refer: 15 85 N 0.731558 0 0 0.730289 10.4221 5.47717 2
Fore
SplineSet
216.2265625 -2.9599609375 m 7
 116.297851562 -2.9599609375 68.2236328125 93.224609375 68.2236328125 135.774414062 c 4
 177.348632812 135.774414062 l 7
 177.348632812 131.653320312 184.1484375 103.869140625 216.2265625 103.5078125 c 4
 216.2265625 -2.9599609375 l 7
177 516 m 5
 177 135.774414062 l 5
 68.2236328125 135.774414062 l 5
 68.2236328125 516 l 5
 177 516 l 5
263.7734375 -2.9599609375 m 7
 363.702148438 -2.9599609375 411.776367188 93.224609375 411.776367188 135.774414062 c 4
 302.651367188 135.774414062 l 7
 302.651367188 131.653320312 295.8515625 103.869140625 263.7734375 103.5078125 c 4
 263.7734375 -2.9599609375 l 7
303 516 m 5
 303 135.774414062 l 5
 411.776367188 135.774414062 l 5
 411.776367188 516 l 5
 303 516 l 5
EndSplineSet
EndChar
StartChar: v
Encoding: 118 118 82
Width: 462
VWidth: 0
Flags: W
HStem: 0 21G<191.794 253.262> 0 21G<191.794 253.262> 495.688 20G<48 174.845 280.994 402>
LayerCount: 2
Back
SplineSet
386 515.6875 m 5
 231.244140625 0 l 1025
EndSplineSet
Fore
SplineSet
402 515.197265625 m 5x20
 317.353515625 232.438476562 l 5
 300.985351562 232.438476562 l 5
 252.047851562 397.301757812 l 5
 286.877929688 515.6875 l 5
 402 515.197265625 l 5x20
48 515.197265625 m 5
 169.12109375 515.6875 l 5
 282.858398438 118.287109375 l 5
 247.239257812 0 l 5
 197.6015625 0 l 5xa0
 48 515.197265625 l 5
EndSplineSet
Validated: 1
EndChar
StartChar: w
Encoding: 119 119 77
Width: 620
VWidth: 0
Flags: HWO
LayerCount: 2
Back
Fore
SplineSet
61 515.197265625 m 5
 182.12109375 515.6875 l 5
 295.858398438 118.287109375 l 5
 260.239257812 0 l 5
 210.6015625 0 l 5
 61 515.197265625 l 5
EndSplineSet
Refer: 76 118 N 1 0 0 1 186 0 2
EndChar
StartChar: x
Encoding: 120 120 81
Width: 413
VWidth: 0
Flags: HW
HStem: -0.666992 21G<41 193.794 240.148 391> 680 20.667G<41 193.794 240.148 391>
LayerCount: 2
Back
Fore
SplineSet
35 0 m 5
 256.700195312 515 l 5
 369 515 l 5
 148.779296875 0 l 5
 35 0 l 5
39 516 m 5
 152.779296875 516 l 5
 373 0 l 5
 260.700195312 0 l 5
 39 516 l 5
EndSplineSet
EndChar
StartChar: y
Encoding: 121 121 82
Width: 461
VWidth: 0
Flags: HW
LayerCount: 2
Back
SplineSet
22 515.6875 m 5
 140 106 l 5
 156.368164062 106 l 5
 209.305664062 270.86328125 l 5
 137.122070312 516.177734375 l 5
 22 515.6875 l 5
102 -182 m 5
 339.700195312 515.6875 l 5
 452 515.6875 l 5
 215.779296875 -182 l 5
 102 -182 l 5
EndSplineSet
Fore
SplineSet
402 515.197265625 m 1
 317.353515625 232.438476562 l 1
 300.985351562 232.438476562 l 1
 252.047851562 397.301757812 l 1
 286.877929688 515.6875 l 1
 402 515.197265625 l 1
48 515.197265625 m 1
 169.12109375 515.6875 l 1
 282.858398438 118.287109375 l 1
 247.239257812 0 l 1
 197.6015625 0 l 1
 48 515.197265625 l 1
78.3427734375 -181.6875 m 1
 226 320 l 1
 282.858398438 118.287109375 l 1
 192.122070312 -181.6875 l 1
 78.3427734375 -181.6875 l 1
EndSplineSet
EndChar
StartChar: z
Encoding: 122 122 83
Width: 433
VWidth: 0
Flags: HW
VStem: 50 333.5
LayerCount: 2
Back
Fore
SplineSet
159.51953125 106.603515625 m 17
 296.7890625 409.866210938 l 1
 296.7890625 516.24609375 l 1
 44 516 l 1
 44 410.11328125 l 1
 181.61328125 410.11328125 l 1
 44 105.603515625 l 1
 44 -0.494140625 l 1
 296.7890625 -0.494140625 l 1
 296.7890625 105.845703125 l 1
 159.51953125 106.603515625 l 17
EndSplineSet
EndChar
StartChar: braceleft
Encoding: 123 123 112
Width: 1024
VWidth: 0
Flags: HW
LayerCount: 2
Back
SplineSet
421 734.560546875 m 13
 422.080078125 648.16015625 l 21
 383.16796875 625.190429688 362.36328125 593.318359375 360.51953125 520.719726562 c 13
 360.51953125 207.51953125 l 21
 359.666015625 104.614257812 384.620117188 73.28515625 421 50.919921875 c 13
 421 -36.560546875 l 21
 278.82421875 22.4296875 266.994140625 92.830078125 257.919921875 189.16015625 c 13
 257.919921875 509.919921875 l 21
 266.176757812 651.728515625 322.0390625 695.912109375 421 734.560546875 c 13
EndSplineSet
Fore
SplineSet
422 735 m 13
 422 662 l 21
 353.517578125 661.842773438 355.028320312 617.85546875 354 496 c 13
 354 384 l 21
 354.548828125 366.154296875 334.528320312 354.01953125 310 348 c 5
 334.666992188 339.5546875 353.842773438 325.104492188 354 304 c 13
 354 178 l 21
 353.943359375 56.49609375 366.975585938 31.0244140625 421 31 c 13
 421 -38 l 21
 322.441234424 -37.6353250263 258.428787138 -45.6021139536 258 192 c 13
 258 290 l 21
 257.602080966 322.352549716 231.982421875 328.809570312 196 348 c 21
 232.049804688 363.025390625 257.4921875 369.815429688 258 408 c 13
 258 504 l 22
 258 714.622968215 313 735 422 735 c 13
EndSplineSet
EndChar
StartChar: sterling
Encoding: 163 163 102
Width: 1024
VWidth: 0
Flags: H
LayerCount: 2
Back
SplineSet
48.677734375 281.423828125 m 5
 48.677734375 388.318359375 l 5
 104.771484375 388.318359375 l 5
 104.771484375 547.608398438 l 6
 104.771484375 569.833007812 109.84765625 592.057617188 115.247070312 610.05078125 c 4
 121.916015625 628.045898438 131.38671875 641.801757812 142.713867188 653.97265625 c 4
 154.037109375 665.6171875 167.16015625 675.670898438 184.78515625 682.551757812 c 4
 202.404296875 689.959960938 224.474609375 694.192382812 246.43359375 694.192382812 c 6
 327.403320312 694.192382812 l 6
 347.561523438 694.192382812 367.936523438 689.428710938 384.764648438 684.66796875 c 4
 401.59375 678.318359375 414.984375 669.322265625 426.784179688 657.6796875 c 4
 438.583007812 646.56640625 448.744140625 633.333984375 456.046875 614.284179688 c 4
 463.403320312 595.765625 468.114257812 571.946289062 468.114257812 548.135742188 c 6
 468.114257812 474.576171875 l 5
 336.766601562 474.576171875 l 5
 336.766601562 542.313476562 l 6
 336.766601562 550.252929688 335.657226562 558.192382812 334.59765625 564.010742188 c 4
 333.22265625 569.305664062 331.370117188 572.479492188 329.623046875 574.06640625 c 4
 327.82421875 576.184570312 326.18359375 577.767578125 323.274414062 578.30078125 c 4
 320.361328125 579.359375 316.182617188 579.891601562 312.055664062 579.891601562 c 6
 260.775390625 579.891601562 l 6
 256.966796875 579.891601562 253.103515625 579.359375 250.401367188 578.830078125 c 4
 247.65234375 577.767578125 246.01171875 576.712890625 244.262695312 575.125976562 c 4
 242.518554688 573.0078125 240.66796875 570.358398438 239.291015625 564.54296875 c 4
 237.916015625 559.25 237.067382812 550.252929688 237.067382812 541.784179688 c 6
 237.067382812 388.318359375 l 5
 375.874023438 388.318359375 l 5
 375.874023438 281.423828125 l 5
 237.067382812 281.423828125 l 5
 237.067382812 118.060546875 l 5
 487.322265625 118.060546875 l 5
 487.322265625 3.8076171875 l 5
 104.771484375 3.8076171875 l 5
 104.771484375 281.423828125 l 5
 48.677734375 281.423828125 l 5
EndSplineSet
Fore
SplineSet
337 474 m 25
 469 474 l 25
 469 545 l 17
 469 553 469 611 443 640 c 24
 411 675 384 694 333 694 c 9
 245 694 l 17
 225 694 175 690 148 660 c 24
 114 624 104 589 104 541 c 9
 104 388 l 25
 47.998046875 388 l 25
 47.998046875 281 l 25
 104 281 l 25
 104 0 l 25
 488 0 l 25
 488 117 l 25
 236 117 l 25
 236 282 l 25
 376 282 l 25
 376 389 l 25
 237 389 l 25
 237 544 l 17
 237.421881609 571.109408045 240.318166556 579.610380889 263 580 c 9
 312 580 l 21
 333.650213851 581.14990835 337.06719545 565.1093485 337 547 c 13
 337 474 l 25
EndSplineSet
EndChar
StartChar: copyright
Encoding: 169 169 49
Width: 1024
VWidth: 0
Flags: HW
HStem: 604.446 31.6825 635.365 1.63231G<7.61166e+07 1.66781e+08> 688.221 1.55458G<7.61166e+07 1.66781e+08>
VStem: 7.59559e+07 1.20083e+08 7.61166e+07 9.06649e+07<635.365 689.775> 2.66127e+08 8.87358e+07<628.855 634.562 688.531 694.238>
LayerCount: 2
Back
SplineSet
190.883789062 340.040039062 m 0
 190.883789062 507.075195312 324.212890625 642.649414062 489 642.649414062 c 0
 653.787109375 642.649414062 787.116210938 507.075195312 787.116210938 340.040039062 c 0
 787.116210938 173.004882812 653.787109375 37.4306640625 489 37.4306640625 c 0
 324.212890625 37.4306640625 190.883789062 173.004882812 190.883789062 340.040039062 c 0
106.799804688 339.040039062 m 4
 106.799804688 553.1875 277.734375 727.000976562 489 727.000976562 c 4
 700.265625 727.000976562 871.200195312 553.1875 871.200195312 339.040039062 c 0
 871.200195312 124.892578125 700.265625 -48.9208984375 489 -48.9208984375 c 0
 277.734375 -48.9208984375 106.799804688 124.892578125 106.799804688 339.040039062 c 4
464.913085938 1139.86328125 m 1
 464.602539062 1139.86328125 l 1025
515.774414062 1139.86328125 m 1
 515.463867188 1139.86328125 l 1025
EndSplineSet
Fore
SplineSet
508.940429688 44.2197265625 m 0
 509.120117188 -48.5595703125 l 1
 680.940429688 -42.7802734375 865.005004115 103.951903025 870.840820312 326.799804688 c 0
 877.605419669 585.114446745 658.940429688 725.219726562 509 726 c 1
 508.940429688 636.219726562 l 1
 639.581054688 635.139648438 785.90234375 513.166015625 781.940429688 332.219726562 c 0
 778.575195312 178.534179688 654.940429688 51.2197265625 508.940429688 44.2197265625 c 0
466.059570312 45.2197265625 m 0
 466.879882812 -47.5595703125 l 1
 288.059570312 -45.7802734375 108.678570632 123.9636603 107.159179688 327.799804688 c 0
 105.068932113 608.220066461 341.059570312 728.219726562 474 727 c 1
 474.059570312 636.219726562 l 1
 343.418945312 635.139648438 196.629882812 518.208984375 197.059570312 333.219726562 c 0
 197.416546537 179.534160284 320.059570312 52.2197265625 466.059570312 45.2197265625 c 0
EndSplineSet
Refer: 12 67 N 0.64 0 0 0.64 319.72 115.72 2
EndChar
StartChar: registered
Encoding: 174 174 49
Width: 1024
VWidth: 0
Flags: HWO
LayerCount: 2
Back
Fore
SplineSet
508.940429688 44.2197265625 m 0
 509.120117188 -48.5595703125 l 1
 680.940429688 -42.7802734375 865.005004115 103.951903025 870.840820312 326.799804688 c 0
 877.605419669 585.114446745 658.940429688 725.219726562 509 726 c 1
 508.940429688 636.219726562 l 1
 639.581054688 635.139648438 785.90234375 513.166015625 781.940429688 332.219726562 c 0
 778.575195312 178.534179688 654.940429688 51.2197265625 508.940429688 44.2197265625 c 0
466.059570312 45.2197265625 m 0
 466.879882812 -47.5595703125 l 1
 288.059570312 -45.7802734375 108.678570632 123.9636603 107.159179688 327.799804688 c 0
 105.068932113 608.220066461 341.059570312 728.219726562 474 727 c 1
 474.059570312 636.219726562 l 1
 343.418945312 635.139648438 196.629882812 518.208984375 197.059570312 333.219726562 c 0
 197.416546537 179.534160284 320.059570312 52.2197265625 466.059570312 45.2197265625 c 0
EndSplineSet
Refer: 10 82 S 0.659624 0 0 0.659933 324.019 110.047 2
EndChar
StartChar: .notdef
Encoding: 256 -1 2
Width: 1024
VWidth: 0
Flags: W
HStem: 0 21G<44 185> 680 20G<44 185>
VStem: 44 141<0 700>
LayerCount: 2
Back
Fore
SplineSet
44 700 m 5
 185 700 l 5
 185 0 l 5
 44 0 l 5
 44 700 l 5
EndSplineSet
EndChar
StartChar: NameMe.258
Encoding: 258 -1 14
Width: 1024
VWidth: 0
Flags: HWO
LayerCount: 2
Back
Fore
SplineSet
464.25 189.75 m 1
 464.25 21.453125 277.5 -7.5 277.5 -7.5 c 1
 277.5 134 l 1
 292.5 134 322.489257812 145.75 323 189.75 c 2
 323 700 l 1
 464 700 l 1
 464 189.75 l 1
 464.25 189.75 l 1
EndSplineSet
EndChar
StartChar: NameMe.259
Encoding: 258 -1 14
Width: 1024
VWidth: 0
Flags: HW
HStem: -7.5 197.25
VStem: 277.5 186.75
LayerCount: 2
Back
Fore
SplineSet
464.25 189.75 m 3
 464.25 46.453125 327.5 -7.5 267.5 -7.5 c 4
 267.5 134 l 7
 272.5 134 322.489257812 143.75 323 189.75 c 0
 464.25 189.75 l 3
EndSplineSet
EndChar
StartChar: NameMe.260
Encoding: 260 -1 17
Width: 1024
VWidth: 0
Flags: HW
LayerCount: 2
Back
Fore
SplineSet
464.25 189.75 m 1
 464.25 51.453125 337.5 -7.5 277.5 -7.5 c 1
 277.5 134 l 1
 282.5 134 322.489257812 143.75 323 189.75 c 2
 323 239 l 1
 464 239 l 1
 464 189.75 l 1
 464.25 189.75 l 1
EndSplineSet
EndChar
StartChar: NameMe.261
Encoding: 261 -1 25
Width: 677
VWidth: 0
Flags: HW
LayerCount: 2
Back
Fore
SplineSet
297 563.666992188 m 21
 297 563.666992188 328.944335938 555.110351562 339 532 c 4
 344.353030657 519.697439011 344 509 344 495 c 30
 344 465 l 29
 482 516 l 21
 482 611.519863045 389.708699211 704.666992188 297 704.666992188 c 13
 297 563.666992188 l 21
EndSplineSet
EndChar
StartChar: NameMe.262
Encoding: 262 -1 28
Width: 292
VWidth: 0
Flags: HW
LayerCount: 2
Back
Fore
SplineSet
259 539 m 1
 259 398 l 1
 29 398 l 1
 29 539 l 1
 259 539 l 1
EndSplineSet
EndChar
StartChar: NameMe.264
Encoding: 264 -1 33
Width: 442
VWidth: 0
Flags: HW
LayerCount: 2
Back
Fore
SplineSet
421 127 m 1
 421 0 l 1
 20 0 l 1
 20 127 l 1
 421 127 l 1
EndSplineSet
EndChar
StartChar: NameMe.265
Encoding: 265 -1 52
Width: 1002
VWidth: 0
Flags: HW
LayerCount: 2
Back
Fore
SplineSet
216.404296875 486.73828125 m 9
 216.404296875 371.510742188 l 17
 159.94921875 369.918945312 142.663085938 284.560546875 142.663085938 244.25390625 c 0
 142.663085938 192.887695312 159.59375 114.403320312 215.435546875 113.788085938 c 9
 215.435546875 6.62109375 l 17
 106.306640625 6.8193359375 36.9013671875 111.21484375 36.9013671875 247.075195312 c 0
 36.9013671875 388.99609375 120.890625 487.2421875 216.404296875 486.73828125 c 9
EndSplineSet
EndChar
StartChar: NameMe.266
Encoding: 266 -1 66
Width: 498
VWidth: 0
Flags: W
HStem: 1.88281 107.167<-634.531 -598.969 -556.031 -520.469 179.594 249.436> 358.772 115.228<-632.023 -598 -557 -522.977 180.949 250.404>
VStem: -737.503 91.7617<118.548 346.595> -509.259 91.7617<118.548 346.595> 79.9014 109.762<105.051 365.778> 303 109.855<1.63477 677>
LayerCount: 2
Back
Fore
SplineSet
-557 474 m 13
 -557 358.772460938 l 21
 -507.544921875 357.180664062 -509.258789062 279.822265625 -509.258789062 239.515625 c 4
 -509.258789062 188.149414062 -502.189453125 109.665039062 -556.03125 109.049804688 c 13
 -556.03125 1.8828125 l 21
 -452.90234375 2.0810546875 -417.497070312 55.4765625 -417.497070312 242.336914062 c 4
 -417.497070312 428.2578125 -471.486328125 473.50390625 -557 474 c 13
-598 474 m 9
 -598 358.772460938 l 17
 -647.455078125 357.180664062 -645.741210938 279.822265625 -645.741210938 239.515625 c 0
 -645.741210938 188.149414062 -652.810546875 109.665039062 -598.96875 109.049804688 c 9
 -598.96875 1.8828125 l 17
 -702.09765625 2.0810546875 -737.502929688 55.4765625 -737.502929688 242.336914062 c 0
 -737.502929688 428.2578125 -683.513671875 473.50390625 -598 474 c 9
303 677 m 1
 412.85546875 677 l 1
 412.85546875 1.634765625 l 1
 303 1.634765625 l 1
 303 677 l 1
250.404296875 472.73828125 m 9
 250.404296875 357.510742188 l 17
 180.94921875 355.918945312 189.663085938 278.560546875 189.663085938 238.25390625 c 0
 189.663085938 186.887695312 179.59375 108.403320312 249.435546875 107.788085938 c 9
 249.435546875 0.62109375 l 17
 114.306640625 0.8193359375 79.9013671875 23.21484375 79.9013671875 241.075195312 c 0
 79.9013671875 452.99609375 133.890625 473.2421875 250.404296875 472.73828125 c 9
303 677 m 1
 412.85546875 677 l 1
 412.85546875 1.634765625 l 1
 303 1.634765625 l 1
 303 677 l 1
303 677 m 1
 412.85546875 677 l 1
 412.85546875 1.634765625 l 1
 303 1.634765625 l 1
 303 677 l 1
250.404296875 472.73828125 m 9
 250.404296875 357.510742188 l 17
 180.94921875 355.918945312 189.663085938 278.560546875 189.663085938 238.25390625 c 0
 189.663085938 186.887695312 179.59375 108.403320312 249.435546875 107.788085938 c 9
 249.435546875 0.62109375 l 17
 114.306640625 0.8193359375 79.9013671875 23.21484375 79.9013671875 241.075195312 c 0
 79.9013671875 452.99609375 133.890625 473.2421875 250.404296875 472.73828125 c 9
303 677 m 1
 412.85546875 677 l 1
 412.85546875 1.634765625 l 1
 303 1.634765625 l 1
 303 677 l 1
EndSplineSet
Validated: 37
EndChar
StartChar: NameMe.267
Encoding: 267 -1 65
Width: 567
VWidth: 0
Flags: HW
LayerCount: 2
Back
Fore
SplineSet
94 229 m 1
 196.64453125 229 l 1
 196.64453125 0.2138671875 l 1
 94 0.2138671875 l 1
 94 229 l 1
EndSplineSet
EndChar
StartChar: NameMe.268
Encoding: 268 -1 68
Width: 432
VWidth: 0
Flags: HW
LayerCount: 2
Back
Fore
SplineSet
264.14453125 698 m 5
 375 698 l 5
 374.85546875 0 l 5
 264 0 l 5
 264.14453125 698 l 5
EndSplineSet
EndChar
StartChar: NameMe.270
Encoding: 270 -1 69
Width: 1002
VWidth: 0
Flags: HW
LayerCount: 2
Back
Fore
SplineSet
264.512695312 515.678710938 m 7
 264.512695312 409.2109375 l 4
 296.590820312 408.849609375 303.389648438 381.065429688 303.389648438 376.944335938 c 7
 411.465820312 376.944335938 l 4
 411.465820312 419.494140625 364.440429688 515.678710938 264.512695312 515.678710938 c 7
EndSplineSet
EndChar
StartChar: _number_element
Encoding: 263 -1 31
Width: 221
VWidth: 0
Flags: HW
LayerCount: 2
Back
Fore
SplineSet
41 701 m 5
 168 701 l 5
 168 0 l 5
 41 0 l 5
 41 701 l 5
EndSplineSet
EndChar
